<svg xmlns="http://www.w3.org/2000/svg" viewBox="0 0 256 60.2" enable-background="new 0 0 256 60.2"><style type="text/css">.st0{fill:#54738E;} .st1{font-family:&apos;TimesNewRomanPS-BoldMT&apos;;} .st2{font-size:16px;}</style><path class="st0" d="M28.4 48.2c-.1.1-.1.2-.2.2"/><path class="st0" d="M30.4 33.2c.2 0 .4-.2.4-.4s-.2-.4-.4-.4-.4.2-.4.4.1.4.4.4zM49 16.2h-14.5v11.7c0 1.1.5 2.1 1.1 2.4l5.6 3.3c.1.1.3.2.5.2s.3-.1.5-.2l5.7-3.4c.7-.3 1.1-1.3 1.1-2.4v-11.6zm-9.7 3.4h-1.3v-3h1.3v3zm-.9 1l.2-.2-.1-.2h.2l.1-.2.1.2h.2l-.1.2.2.2h-.2v.2l-.2-.2-.2.2v-.2h-.2zm-3.5 3.8v-2.8h1.5v2.8h-1.5zm.3-4.2h.2l.1-.2.1.2h.2l-.1.2.2.2h-.2v.2l-.2-.2-.2.2v-.2h-.2l.2-.2-.1-.2zm1.7 2.9h.2l.1-.2.1.2h.2l-.1.2.2.2h-.2v.2l-.2-.2-.2.2v-.2h-.2l.2-.2-.1-.2zm1-2.3c0-.1-.1-.1-.2-.1l-.3.2s-.1 0-.1-.1.2-.1.2-.2c-.9 0-1 .4-1.1.4-.2 0 .2-.5.3-.6-.2 0-.3-.3-.5-.4.1-.1.2-.1.3 0 0-.1.1-.2.3-.2.4 0 .3.4.4.4.1 0 0-.4.3-.4.4 0 .9 1.1.5 1.1-.3.1-.1 0-.1-.1zm-1.1-3.1l.2-.2-.1-.2h.2l.1-.2.1.2h.2l-.1.2.2.2h-.2v.2l-.2-.2-.2.2v-.2h-.2zm-.4-1.1v3h-1.5v-3h1.5zm2.9 15.5l-3.5-2.1c-.6-.4-.9-1.1-.9-1.9v-3.3h4.4v7.3zm-1.2-7.7v-2.8h1.3v2.8h-1.3zm5.7 7.9l-1.6 1c-.1.1-.3.1-.4.1s-.3-.1-.4-.2l-1.6-1v-7.5h4.1l-.1 7.6zm0-7.9h-4.1v-7.8h4.1v7.8zm4.8 3.6c-.1.8-.4 1.5-.9 1.9l-3.5 2.1v-7.3h4.4v3.3zm0-3.6h-4.4v-7.8h4.4v7.8zM39.1 27.4c0-.1-.5.2-.4.2 0-.2.3-.5.4-.6 0-.2-.3 0-.5.1.8-1.2.3-.7-.2-.6.7-.8.5-.8 0-.5.4-.3.5-.7.5-.9-.4.5-.8.4-.8.9 0 .3-.1.9-.3 1-.2.2-.1-.9-.6-.9-.2 0-.6 0-.7.2.1 0 .3.3.3.4s.1.4-.1.4-.4-.4-.4-.6v-.4c0-.5-.8-1.1-1.1-1.1 0 .3.4.4.4.8-.2 0-.4-.3-.4-.1l.3.4-.3.1s.2.1.2.3h-.3c0 .1 0 .1.1.2 0 0-.1.1-.1.4 0 .9.6 1.4 1 1.4.3 0 .3-.2.3-.3 0 .2.2-.1.2.2 0 .3-.3.2-.3.4 0 .3.5 0 .5.4s-.1.4-.1.6c0 .1.5-.2.5-.2.1 0 .1.4.3.4l.3-.4c-.1 0 .4.3.4.2 0-.4-.2-.2-.2-.5s.6-.2.5-.4c-.1-.1-.1 0-.2-.2 0 0-.5-.7.1-.3.6.4.7-.9.7-1zM54.5 30.5c.3 0 .5-.2.5-.4s-.2-.4-.5-.4-.5.2-.5.4c.1.2.3.4.5.4zM52.6 31.6c.3 0 .5-.2.5-.4s-.2-.4-.5-.4-.5.2-.5.4.3.4.5.4zM29.7 34.3c.3 0 .5-.2.5-.4s-.2-.4-.5-.4-.5.2-.5.4.2.4.5.4zM31.2 34.4c.3 0 .5-.2.5-.4s-.2-.4-.5-.4-.5.2-.5.4.2.4.5.4zM72.4 14.4c.7.8.9 2.2.4 3.2-.3 0-.2-.4-.3-.6-.5-.9-.9-2.1-.5-3.2.4 0 .2.5.4.6zM11.9 15.6c-.2.6-.2 1.5 0 2-.1.1-.1-.1-.2-.1-1-.7-.5-2.1-.8-3.1.1-.1.2-.1.2-.1.5.3.7.8.8 1.3zM74.6 15.7c.1.3-.1.6-.3.7-.2.1-.5-.1-.6-.3-.1-.3.1-.5.3-.7.2 0 .4 0 .6.3zM10.4 16.8c-.1.2-.1.5-.3.6-.2 0-.4 0-.5-.1-.2-.1-.2-.4-.1-.5.1-.2.3-.2.5-.2.1-.1.3 0 .4.2zM75.6 17.2c.1.2.1.3 0 .4-.2.2-.4.3-.7.2-.2-.1-.2-.3-.3-.4.1-.2.2-.4.4-.5.3 0 .4.2.6.3zM74.1 17.2c.2.1.1.4 0 .5-.1.1-.3.3-.5.3-.1-.1-.3-.1-.3-.3 0-.3.1-.5.4-.6.2 0 .3 0 .4.1zM72.3 17.6c0 .3 0 .6-.3.7-.3.1-.5-.2-.6-.4 0-.3.1-.5.4-.6.2 0 .4.2.5.3zM13.1 17.7c.1.3-.2.4-.3.5-.2.1-.4-.1-.5-.3-.2-.2.1-.3.1-.5.3-.1.6.1.7.3zM11.6 17.8c0 .2-.1.4-.3.5-.2.1-.4-.1-.5-.2-.1-.2 0-.5.2-.6.3-.1.5.1.6.3zM66.2 17.9c.2.5.5 1.2.5 1.8-.1.5.1 1.1-.3 1.5-.4-.1-.4-.6-.6-.8-.5-.9-.1-1.9.1-2.8.2-.1.2.2.3.3zM10.4 18.2c.1.3-.1.5-.3.6-.3.1-.5-.2-.6-.4 0-.2.1-.5.3-.6.3.1.5.2.6.4zM70.2 19c.3.7.4 1.6.1 2.4l-.2.1c-.4-.7-.9-1.3-1-2.1 0-.5.1-1 .3-1.5.2-.1.3 0 .4.2 0 .4.1.7.4.9zM73.4 18.5c0 .3-.1.5-.4.6-.2.1-.5 0-.6-.3s.1-.5.3-.6c.3-.2.5.1.7.3zM11.7 19.3c0 .2-.2.4-.4.5-.2.2-.4-.1-.5-.2-.1-.2-.1-.4 0-.6s.2-.2.4-.2c.2.1.4.2.5.5zM12.8 19.2c.1.2-.2.4-.3.5-.3.1-.5-.1-.6-.3-.1-.3.1-.4.3-.6.3-.1.4.1.6.4zM74.1 19.1c0 .3-.5.7-.6 1-.3.7-.9 1.2-1.6 1.4-.1.1-.4.3-.6.3-.1-.5.4-1 .7-1.4.6-.7 1.3-1.1 2.1-1.3zM11.2 20.2l1 1.2c0 .1-.1.3-.2.3-1.2-.1-2.1-1.3-2.7-2.2.1-.3.4-.1.6-.1.4.2.9.3 1.3.8zM74.4 20.5c-.1 1.1-.6 2.2-1.6 2.7-.3.1-.6.4-.9.2.5-1.1 1.3-2 2.2-3h.3v.1zM69.6 21.2c.1.4-.1.6-.4.7-.3 0-.5-.2-.6-.4 0-.2.1-.5.4-.6.1-.1.2-.1.3-.1.1.2.1.3.3.4zM9.8 21.5c.5.3.9.8 1.4 1.2-.3.2-.7 0-1.1 0l-2.3-1.3c0-.3.4-.2.5-.3.5 0 .9.2 1.5.4zM36.8 13.9c-1.4-.6-2.4.9-3.8.7-.2.1-.1.3-.2.4h-.3l-.4-1.8c-.1-.2-.1-.6-.2-.9-.8-2.2 2-.5 2.5-1.8.5-1.1-.9-1.2-1.4-2v-.3c-.4-.4-.8-.5-1.1-1.1.2-.6.2-1.3.1-2 0-.2-.1-.4-.4-.3-.5.7-.8 1.2-1.3 1.8-.5-.4-.9-.8-1.5-1.1-.4-.1-.7-.4-1.2-.3-.1.2 0 .3.1.4 0 1 .5 1.8 1.2 2.5l.1.4c-.5 1-.3 2.2-.5 3.4-1.1 2.9-3 5.7-5.5 7.7-1.4 1.6-3.2 3.2-3.4 5.4-.1.4.1.8-.2 1-.8-.3-1.7-.7-2.4-1.2-1.2-.8-2.8-.7-3.6-2.2-.3-.6.1-1.2.4-1.6.9-.8.7-2.3.3-3.3l-.2.1c-.1 1.5-1.3 2.5-.8 4.2.1.5.4.8.5 1.2-.2-.1-.4-.1-.6-.1-.6-.1-1.1-.3-1.7-.2-1.2.5-2.8-.1-3.7.9-.2 0-.4.1-.3.3.6 0 1.1.2 1.6.1.9.2 1.5-.6 2.1-.9h.2c.2-.3.7-.1 1-.2 1.6.2 2.8.9 4.1 1.7v.1c-.5.2-1.1.4-1.6.7-.6.4-1.2 1-1.4 1.7-.4.6.1 1.2.4 1.7 0 .3.1.6.3.7.8-.9.1-1.9.2-2.9.2-.8.9-1.1 1.6-1.3 1.4-.6 2.5.6 3.6 1.2 0 1.2.1 2.3-.1 3.4-.4.1-.8.2-1.2.2-2 .2-3.6 1.2-5.4 1.9l-2.6.6c.6.2 1.3-.1 1.9-.1 2.5-.4 4.4-2.3 7-1.9l.1.1c-.3.6-.7 1.2-1.2 1.7-.1-.3-.1-.5-.4-.7-.2-.1-.4 0-.6.2-.1.1-.1.3 0 .4.1.2.3.3.5.4-.1.2-.3.3-.5.5-.7 1.2-2.2.7-3 1.6-.1.2-.6.3-.4.6 1 .1 1.9-.2 2.6-.7.9-1 1.9-2 2.9-3 .2.8-.1 1.7-.6 2.3-.2-.1-.4-.3-.7-.4-.3.1-.4.3-.5.5.1.2.2.4.4.5-.9.6-1.9.7-2.9.9-1.8.2-3.6.4-5.5.4-.9-.1-1.9.3-2.7 0-1 .2-2-.1-2.8.4-.1.1 0 .3 0 .4 1.2.8 2.8.2 4.1.4h10c.7 0 1.5-.1 2.1-.4 1.3-.7 2-2.1 2.7-3.4.2-.5.4-1 .5-1.5.2-.9 1-1.5 1.9-1.6.1 1.3-.1 2.6-.4 3.9-.2.8-.7 1.6-.4 2.5.1.4.5.4.8.5 3.1-.1 6.1-.2 9.3.1.6.1 1.1.3 1.7.3.1-.1.2-.1.2-.3-.1-.3-.3-.6-.6-.7-.1-.2-.3-.1-.4-.2-1.6-.9-3.6-.4-5.5-.4-1 .1-2 .3-2.8-.3-.4-.5-.1-1.9-.1-1.9 0-.6 1.4-4.6 1.6-4.9.1-.4.2-.7.2-1.2.7-.5.7-1.1.7-1.7.1-.8.5-1.6.8-2.4l.4-1.2c.2-.5.2-.9.5-1.3.8.5 1.6.5 2 1.4l.4 2.1c0 .1.1.4.3.2.7-.4.5-1.4.5-2.1.1-.8-.4-1.2-.6-1.9-.2-.1-.5-.7-.5-.7-.1-.6-1.3-.9-1-1.6.2-.6.3-1.1.9-1.5.1.1.1.1.1.2h.2v-2.1c.8 0 2 .1 2.9.1.2.1.4.3.7.3l.2-.3 2-.4c-.9 0-1.5-1-2.3-1zM39 14.8h.2-.2zM17 21.9c0 .3-.2.5-.4.6-.2-.1-.4-.1-.5-.3-.1-.3.2-.5.4-.6.2.1.5.1.5.3zM15.4 21.9c.2.2.2.4.1.6-.2.2-.5.3-.6.1-.2-.2-.3-.3-.2-.5.2-.2.5-.4.7-.2zM50.6 22.2"/><path class="st0" d="M69.8 22.6c.1.3-.1.5-.3.6-.3-.1-.6-.1-.6-.5 0-.2.2-.3.4-.4.2 0 .4.2.5.3zM71.2 22.6c.1.1.2.3.1.5-.1.1-.2.1-.2.2-.3.1-.5-.1-.6-.3-.1-.3.2-.4.4-.5 0-.1.1 0 .3.1zM9 22.9c-.1.3-.4.4-.7.3-.1-.1-.2-.2-.2-.3 0-.2.1-.4.3-.4.3 0 .6.1.6.4zM17.6 23.3c0 .2-.3.4-.4.5-.3 0-.4-.2-.6-.4 0-.2.1-.5.3-.5.3-.1.6.2.7.4zM16.1 23.2c.1.1.2.3.1.4-.2.1-.4.4-.6.2-.2-.1-.3-.2-.3-.5.1-.1.2-.3.4-.3.1-.1.2.1.4.2zM75 23.5c0 .2-.2.4-.3.5-.2.1-.4 0-.6-.1-.1-.1-.1-.3-.1-.4.1-.2.3-.3.5-.3.3 0 .4.1.5.3zM76.7 23.7c-.1.2-.2.4-.5.5-.2 0-.4-.1-.4-.3 0-.2.1-.4.2-.4.3-.2.6-.1.7.2zM11.9 24c.1.3-.1.5-.3.6-.2.1-.4 0-.5-.1s-.2-.3-.1-.5.3-.2.4-.3c.3.1.4.2.5.3zM13.2 24.3c.1.2-.2.3-.2.4-.1.1-.3.2-.5.1-.2-.2-.4-.4-.2-.6.2-.4.7-.2.9.1zM73.5 24.2c0 .2-.2.4-.4.6-.2.1-.5-.1-.5-.3 0-.2.1-.4.3-.5.3-.1.5-.1.6.2zM75.6 24.6c-.1.2 0 .5-.3.6-.2.1-.5 0-.6-.1-.1-.1-.2-.4-.1-.5.1-.2.4-.4.6-.3.2 0 .3.2.4.3zM11 25.1c.1.2-.1.3-.2.4-.2.1-.4 0-.5-.1-.2-.1-.1-.4-.1-.5.2-.4.7-.1.8.2zM74 25.6c.1 0 .1.2 0 .2-.6.3-1.5.4-2-.1-.3-.3-.7-.4-1-.6.1-.3.6-.3.9-.4.7.2 1.3.9 2.1.9zM12.2 25.3c.1.2-.1.3-.2.4-.1.2-.3.1-.4.1-.2-.2-.3-.4-.2-.6.3-.3.6-.1.8.1zM14.4 25.5c.1.2-.1.4-.2.6-.2.1-.3-.1-.5-.1-.1-.2-.4-.4-.1-.6.2-.4.6-.2.8.1zM43.6 26.6c-.1.5-.9-.1-.8.6.1.5.2 1.1.5 1.4.2.3.1.9.1 1.3-.2.4-.6.6-1 .8-.7-.1-1.8.4-2.1-.5-.1-.4-.4-.8-.4-1.2.1-.1.2-.1.2-.1 0-.2-.2-.3-.2-.4.8-.1-.3-.9.4-.9.6.6 1.5.4 2 1.1.1.1.2.2.4.3-.1-.6-.4-1.2-.5-1.9-.1-.3.1-.7.3-.8.5-.5.9 0 1.1.3zM16.6 26.4c.1.3-.1.4-.3.5-.2.1-.4-.2-.5-.3-.1-.3.1-.4.3-.5.2.1.4.1.5.3zM32.2 26.7c.3 1 .2 2-.3 2.9 0 .2.1.5-.2.5-.7-.9-.2-2.3.1-3.3 0-.3.4-.4.4-.1zM53.9 27.1c.4.7.4 1.7.1 2.4l-.2.2c-.3-.6-.5-1.2-.6-1.8.1-.5.3-.9.3-1.3.3-.1.3.4.4.5zM18.6 27.4c-.2.3-.6.4-.9.6-.6.5-1.5.6-2.2.4.7-.9 1.7-1.5 2.9-1.2 0 .2.2.1.2.2zM8.2 28.3c.9.7 1.2 1.6 1.7 2.5.1.1.3.1.2.3-.2.2-.4-.2-.7-.1-1-.4-1.6-1.5-1.5-2.6.1-.1.2-.1.3-.1zM52.9 29.1c0 .3 0 .5-.2.6-.3.1-.5-.1-.6-.3-.1-.2.1-.3.1-.4.2-.2.5-.1.7.1zM63.5 30.5c0-.5.1-.9.2-1.4.1-.2.1-.3.1-.5.6-.8 1.8-.6 2.8-.5.4.2.9.2 1.3.3.2-.1.4-.2.6-.1.8-.4.3-1.4.3-2.1l-.3-.8c-.1-.2-.2-.3-.2-.5-.1-.2-.2-.5-.4-.7-.4-1.1-1.3-1.8-2-2.6-1.3-1.7-3.3-2.6-5.3-3.3-2-.7-4 .2-5.8.8-.5-.2-.8-.6-1-1.1-.1-1 .1-1.9.5-2.7.1-.6.5-1.1.7-1.7.5-1.4.9-2.8 1-4.4.1-.9-.7-1.6-1.4-2-.5-.1-1-.1-1.4.3-.3.7-1 1.2-1.6 1.5-.1.4.5.2.7.3.6.1 1.2-.1 1.6.3.1 1-.5 1.9-1.1 2.6-.9 1.3-1.8 2.6-2.3 4l-.1-.1.1 6.2c.8 1.3 1.8 2.9 3.3 3.4.8.7 1.8 1.5 2.9.9.6-.2.6.6.9 1 .3.9-.4 1.6-.4 2.5l-.7 1.4c-.8 1.5-1.4 3.1-2.6 4.3l-1 .4c-.2.3-.6.1-.9.2-.8.3-1.9.1-2.4.9.1.1.1.1.2.1 1.5 0 3.3.1 4.9.1.2-.1.4-.3.4-.5-.2-.4.1-.8.3-1.1.1-.6.5-1 .7-1.6.5-1 1.1-2.1 1.7-3.1l.8-1.3c.2-.4.5-1 .8-1.4.2-.2.3-.4.5-.7 0-.3-.1-.4-.2-.5.2-.2.5-.1.7-.2.6.4 1.3 1 1.4 1.7l.2.7.1.3-.1.8.1.8c.1 1.2-.1 2.5-.2 3.7-.4 1.5-2.1 1.3-3.3 1.7-.3.2-.9.1-.9.6 1.5.3 3.2.1 4.7.1.2-.1.3-.3.4-.6.1-.3.4-.6.3-1-.3-.4 0-.9-.1-1.4.1-.1.1-.3 0-.5.2-.7.2-1.6.3-2.3l.2-1.2zM76 29.5c-.8 1.1-1.7 2.4-3.1 2.9-.1 0-.2.1-.2-.1.9-.9 1.3-2.3 2.7-2.7.1-.1.4-.2.6-.1zM7 30.7c-.1.1 0 .3-.2.4s-.4 0-.5-.2c-.1-.3.1-.5.3-.6.1.1.3.2.4.4zM14.3 31.1c.1.2-.2.2-.3.3-1.1.4-2.1 0-2.9-.7 0-.1 0-.2.1-.2 1 .2 2.2 0 3.1.6zM8.4 30.8c.1.1.1.3.1.4-.2.2-.4.3-.6.2-.2-.1-.2-.2-.3-.3 0-.3.2-.4.4-.5.1 0 .2 0 .4.2zM32 30.9c.1.2-.2.4-.3.5-.2.1-.4-.1-.5-.2-.1-.2 0-.4.2-.5.2-.1.6 0 .6.2zM76.9 31c.1.2-.1.4-.3.5-.2.1-.3 0-.5-.1 0-.1-.2-.2-.1-.4s.3-.3.6-.3l.3.3zM78.6 30.9c.2.2 0 .4-.1.6s-.3.2-.5.2c-.2-.2-.4-.2-.4-.5 0-.2.2-.4.4-.4.3-.2.4.1.6.1zM5.9 31.6c0 .2-.1.3-.2.4s-.2.2-.4.1-.3-.2-.4-.4c.1-.2.2-.4.5-.5.2.1.4.2.5.4zM59.1 31.6c.1.1 0 .2 0 .3-.2.2-.4.4-.6.2-.2-.2-.3-.3-.2-.5.2-.2.6-.3.8 0zM10 32c-.1.2-.1.4-.4.4s-.3-.2-.4-.3c0-.2 0-.5.2-.6.3-.1.6.2.6.5zM7.6 32.1c.1.3-.1.4-.2.6-.3.1-.6-.1-.7-.4 0-.2.2-.5.5-.6.1 0 .2.2.4.4zM60.8 32c.1.2 0 .5-.3.6s-.6-.2-.7-.4c.1-.2.2-.5.5-.5.2 0 .4.1.5.3zM8.7 32.1c.1.2-.1.3-.1.4-.1 0-.2.2-.4.1-.1-.1-.3-.2-.3-.4 0-.3.2-.4.3-.5.3 0 .5.2.5.4zM75.5 32.3c-.1.2-.2.3-.4.4-.2.1-.3-.1-.5-.2-.1-.1-.1-.3 0-.5.2-.4.9-.2.9.3zM77.4 32.4c-.1.3-.4.4-.6.4-.2-.1-.5-.3-.3-.6.1-.1.1-.2.3-.2.3-.1.6.2.6.4zM65.5 32.6c.1.3-.2.4-.4.6-.2 0-.3-.1-.5-.2-.1-.3.1-.5.4-.7.2 0 .3.1.5.3zM58.5 32.9c.1.1.1.2.1.3-.2.1-.4.4-.6.2-.2-.1-.3-.3-.3-.5.1-.2.7-.3.8 0zM59.9 33.1c0 .2 0 .3-.2.4-.2.2-.4 0-.6-.1-.1-.1-.1-.3 0-.4s.2-.2.3-.2c.2.1.4.1.5.3zM17 33.1c.2.2 0 .3-.1.5s-.4.3-.6.1c-.2-.1-.2-.4-.2-.6.2-.1.2-.2.4-.2.3 0 .4.1.5.2zM68.2 33.2c.1.3-.2.4-.4.4-.3.1-.5-.1-.6-.3 0-.2.1-.2.2-.4.3-.1.6.1.8.3zM66.8 33.2c.1.3-.2.4-.3.5-.2.1-.4.1-.6-.1-.1-.1-.1-.2-.1-.4.2-.1.2-.3.4-.3.3 0 .5.1.6.3zM78.2 33.5c.1.4-.4.2-.6.3-1.1.6-2.4.2-3.4-.2.1-.3.5-.2.7-.3 1-.8 2.1.1 3.3.2zM9 33.2l-.1.2c-.9.6-2.1.9-3.3.6l-.1-.2c1-.7 2.2-.8 3.5-.6zM70.7 33.4c0 .2-.1.4-.2.5-.2.1-.6 0-.7-.3-.1-.2.1-.4.3-.5.2 0 .5 0 .6.3zM13.5 33.5c-.1.2-.1.4-.3.5s-.6-.1-.6-.3c-.1-.3.1-.4.2-.5.4-.2.6.1.7.3zM11.8 33.6c.1.2-.1.3-.1.4-.1.2-.4.1-.5.1-.2-.2-.4-.3-.3-.6l.4-.3c.2.1.4.2.5.4zM72.5 34.2c0 .2-.2.4-.4.5-.2 0-.4-.1-.5-.3-.1-.2-.1-.4.1-.5.1-.1.2-.1.3-.1.3 0 .5.2.5.4zM9.9 33.9c.1.2-.1.3-.1.4l-.5 1.1c-.5.6-1.2.6-1.8.8l-.1-.2c.6-.9 1.4-1.7 2.5-2.1zM71.2 34.5c.1.3-.2.4-.4.5-.2 0-.4-.1-.5-.3-.1-.3.2-.4.3-.5.3-.1.6.1.6.3zM12.8 34.5c.1.4-.1.5-.3.6-.2 0-.4-.1-.6-.2-.1-.2 0-.5.2-.6.3-.1.6-.1.7.2zM75.9 35.2l.6-.4c.2-.1.5.1.6.3.1.3-.1.5-.3.6s-.6-.2-.5.2c.2.1.3.3.4.5-.1.1-.2.1-.3 0-.7-.3-1.5-.8-1.8-1.6-.1-.2-.6-.4-.3-.6.6 0 1.2.6 1.6 1zM78.3 34.5c.1.1.1.4 0 .5-.1.3-.5.2-.7.1-.1-.1-.2-.3-.2-.5.1-.2.2-.2.4-.3.2-.1.3 0 .5.2zM69.1 35.8c.2.3.5.7.6 1-.1.1-.2.1-.2.1-.9-.5-2-1-2.3-2-.1-.1-.3-.2-.2-.4.7-.1 1.3.4 1.7.7l.4.6zM11.4 34.9c.1.2-.1.4-.2.5-.3.1-.4-.1-.6-.2-.2-.3.2-.5.4-.6.1-.1.2.1.4.3zM72.3 35.5c0 .2-.2.3-.2.4-.2 0-.4.1-.6-.1-.1-.1-.2-.3 0-.5.2-.4.6-.1.8.2zM78.6 35.8c.1.3-.2.5-.4.6-.2.1-.5-.1-.6-.2-.1-.2 0-.3 0-.5.2-.2.4-.3.7-.2l.3.3zM61.1 39.3c0 .3-.6.2-.8.5-.8.4-1.7.4-2.7.4v-.2c1-.8 2.3-1 3.5-.7zM24.2 40.4c0 .2-.2.4-.4.4s-.4-.1-.4-.2c-.1-.3.2-.4.3-.6.3.1.5.2.5.4zM60.7 40.7c-.1.2-.1.5-.4.6-.2.1-.4-.1-.6-.2-.1-.1-.1-.3-.1-.4.2-.5.9-.5 1.1 0zM65.7 40.8c-.6.4-1.3.9-2.2.9h-1.4l-.1-.1c.8-1 2.4-1 3.7-.8zM17.3 41.4c0 .2-.1.4-.3.5-.2.1-.4-.1-.5-.2-.1-.2 0-.5.2-.6.2-.2.5.1.6.3zM18.6 41.7c.1.1-.1.2-.1.3-.1.1-.4.1-.5 0-.2-.1-.2-.3-.2-.4.1-.2.2-.1.3-.2.2 0 .4.1.5.3zM8.9 44.2c-.2.3-.7-.1-.9-.2-.9-.5-.9-1.5-1.7-2.1.1-.3.3 0 .5 0 .2.1.4.2.5.3.8.5 1 1.3 1.6 2zM82.6 34.4c-.4-.7-1.1-1-1.9-1-.7.1-1.1.5-1.4 1-.2.6.1 1.1.5 1.4.2.1.4.1.5-.1.1-.3-.2-.3-.3-.6-.1-.4 0-.7.3-.9.2-.3.7-.1 1-.1.3.2.6.4.8.7.2.4.2.9 0 1.3-.3.6-.9 1.1-1.6 1.3-2.1.3-25.1.2-25.1.2-2.7.3-5.8-.5-8.1.9-1.1.5-1.6 1.7-1.9 2.7-.7.6-1.4 1.3-2 2l-.1-.1.5-1.8c.4-.5.4-1.2.7-1.8 1-1.6 1.9-3.1 3.4-4.2.6-.8 1.7-.7 2.7-.7 1 .5 2.2.6 3.5.5.1-.1.1-.1.1-.2l-1.3-.8c-1-.5-2 .2-3 .1-.1-.1-.1-.1-.1-.2 1-.7 2.1-1.2 3.1-1.7.9-.5 1.8-.7 2.8-1.1.4 0 .7-.3 1.1-.1l1.3-.4.2.1c1.1-.4 2.6 0 3.9-.1l.2.2 1.2.3c.5.1.7.6 1.1.6.2-.4-.3-.5-.4-.7.6-.1 1.2 0 1.7.3l-.2.3c-.1.3.1.5.3.6.2.1.3-.1.4-.1.3-.2 0-.5.1-.7 1.9.3 3.7.8 5.4 1.5.5.2.9.5 1.5.5-.5-.5-1.3-.7-1.9-1l-1.4-.6.3-.2c.9-.1 1.6-.7 2.2-1.4.1-.2.3-.1.3-.3-.2-.3-.6.1-.9.1l-2.6 1.7-3.9-.9c-.6-.1-1.3-.2-1.9-.4l-1.4-.1h-2.6l-.1-.2 2.6-1 6.8-3.1c.7-.6 1.3-1.3 1.9-2.1 0-.2-.1-.4-.3-.5s-.4-.1-.5.1c-.3.2 0 .5 0 .8-.3.4-.8.8-1.2 1-.1 0-7 3.1-7 3.1-1 .4-2 .9-3.1 1.1l-1.5.2c-.1.3-.4.5-.6.6-.4.1-.7.3-1.2.3-3.3 1.3-6.7 2.6-9.3 5.2.2-.3.2-.7.2-1.1-.1-.4 0-.8-.3-1.1-.1-.1-.2-.5-.2-.7l-.4.2c-.2.6-.4 1.6-.2 2.2.1.5.5 1 .1 1.4-1.2 1.5-1.9 3.3-2.7 4.9-.3-.1-.5-.3-.6-.6.9-1.1 1.5-2.3 1.8-3.7.2-.1.1-.5.2-.6-.1-.4.2-.8 0-1.2.2-.5-.7-1.1-.2-1.4l-.5.2c-1.1 1.4.6 3.6-.7 4.9v.1c-.4.5-.5.9-1 1.2-.6-.2-.8-.9-1.2-1.5-.6-.5-.6-1.6-.2-2.4.2-.7-.2-1.4-.2-2l-.2-.2c-.6.8-.8 2-.4 3 .2.5.3 1.1.7 1.5.2.7.7 1.2 1.1 1.9.1.3-.2.3-.3.4l-.5-.8c-.8-1.8-1.9-3.2-3.2-4.7-.1-.2-.3-.4-.2-.7.5-.5.6-1.3.3-1.9-.1-.1-.2-.3-.2-.4l-.4-.3c.1.9-.5 1.7-.3 2.6v.1c-2.6-2-5.5-3.7-8.4-5.1l-.2.6c.7.2 2.7 1.4 2.7 1.4.9.3 1.7.9 2.5 1.3 3.4 1.9 5.7 5.1 7.3 8.6 0 .3.3.6.1.9-.5-.8-1.3-1.3-1.9-1.9-.2-1.2-.9-2.3-1.9-2.8-.4-.6-1.2-.6-1.8-.8l-9.2-.1c-7.5-.1-14.3.2-21.7.1-1-.1-2.3-.5-2.6-1.6-.2-.4-.2-1 0-1.4.3-.5.8-.6 1.3-.7.4.1.7.4.9.7 0 .3-.3.6-.4.9 0 .1.1.3.3.2.3-.1.6-.5.7-.8 0-.2.1-.4-.1-.6-.2-.5-.7-.9-1.2-1-.6-.1-1.3.1-1.7.6-.6.5-.6 1.4-.4 2.1.4 1.1 1.6 1.9 2.7 2.1l24.6.1c2.4.1 5.1-.3 7.5.2.9.3 1.8.9 2.1 1.9 0 .1-.1 0-.2 0-2-1.3-4.6-1.8-7.2-1.5-1-.1-1.9.3-2.8.6-.5.1-.9-.1-1.2-.4-.9-.8-2.5-.8-3.7-.5v.2c1.2-.1 2 1 3.1 1.1.2.1.5-.2.7 0-1.2.6-2.3 1.2-3.5 1.6-.4-.1-.6-.4-.9-.6-.5-.5-1.4-.3-2-.4h-.6c.2.4.7.6 1.1.8.6.3 1.4 0 1.9.4-.2.2-.4.2-.5.4-1.2.5-2.2 1.5-3.5 1.5-1.4.2-2.8-.3-3.7-1.2-.4-1-1.4-1.5-2.5-1.5-.1.1-.2.1-.2.2.6.3 1 1 1.5 1.4.4.4 1 0 1.4.5.5.3 1.1.6 1.6.7.4.2.9.3 1.3.4l-.2.1c-2.3.8-5 .8-7.5.7-.8 0-1.5-.2-2.2-.2.1.2.4.3.6.4-.2.1-.4.2-.7.2-.3.1-.7.1-1 .3-.4 0-.8.1-1.1.2-.4.5-.9.9-1.4 1.2 0 .1 0 .3.1.3l1.6-.3c.8-.1 1.3-1 2-1.4.7-.6 1.7-.4 2.6-.3.5.1-.1.3.1.7.2.2.4.4.7.3.1-.1.1-.1.2-.1.2-.2.1-.4 0-.6.4-.2.8 0 1.2-.1 1 0 1.9-.2 2.9-.3.2 0 .3-.2.5 0-.1.2-.3.2-.2.5.1.2.3.3.5.4.2-.1.5-.3.4-.6-.1-.2-.2-.2-.4-.3.5-.3 1.1-.3 1.7-.6.4-.1.7-.2 1.1-.4.3 0 .6-.3.9-.2-.1.4-.3.8-.5 1.2-.4 1.3-.7 3.1 0 4.4.1 0 .1 0 .2-.1-.5-1.3-.2-2.9.2-4.2.4-2.2 2.6-2.8 4.2-3.6l.1.1c-.4 1.1-1.1 2.2-1 3.5.1.2-.1.5 0 .6.4-.2.7-.7.9-1.2.2-1.1-.5-2.6.7-3.4 2.1-.8 4-1.9 6.4-1.9.1.1.2-.1.3.1-.5.6-1.2 1.1-1.5 1.8-.8 1.1-.8 3-.4 4.4.2.8-.5 1.2-.8 1.8-.2.2-.2.6-.3.8l.5.1c.4-.5.8-1 .9-1.7.1.3.3.5.5.5.2-.3-.2-.5-.2-.8.4-.2.6.3.9.4.5.1 1 .4 1.5.4l.2-.2c-.6-.9-1.7-1-2.6-1.1-.5-.8-.5-1.9-.5-2.9.1-.5.2-1.1.5-1.6.1-.4.5-.7.7-1 .5-.4 1-.7 1.6-.9h.1v.1c-.7.5-.8 1.3-1.2 1.9-.4.6-.6 1.5-.2 2.2.2.3.1.8.4 1.1.3-.5.4-1 .5-1.6-.1-.8-.6-1.6-.1-2.4.2-.6.8-.9 1.4-1.1 1.4-.1 2.6.6 3.8 1.1.2.2.7.3.7.7 0 .7-.4 1.4-.9 1.7-.7.4-1.7.5-2.3 0-.4-.4-.5-1-.4-1.6.3-.3.7-.6 1.1-.4.3.1.5.4.8.2.1-.1.2-.3.1-.4-.3-.2-.4-.5-.8-.6-.5-.1-1.1-.1-1.4.3-.5.5-.7 1.2-.6 1.8.2.8.8 1.4 1.6 1.6 1.2.3 2.4-.1 3.1-1.1.3-.3.4-.7.6-1.1 1.2.7 2.1 2 2.6 3.4 0 .4.1.9 0 1.3l.9.1c-.1-.2 0-.4.1-.6.3-1.7 1.4-3.1 2.6-4.2.4-.3.3.3.4.5.4 1 1.3 1.7 2.2 1.9 1.1.2 2.1-.1 2.7-.9.3-.6.7-1.5.2-2.1-.4-.4-.8-.7-1.4-.7-.7 0-1.1.5-1.4.9 0 .2 0 .4.2.5.1 0 .3 0 .4-.1.1-.4.4-.6.7-.8.3-.2.6 0 .8.2.3.2.3.6.4 1-.1.5-.4 1-.8 1.2-.7.4-1.8.2-2.4-.2-.3-.3-.5-.7-.7-1.1-.1-.4-.2-.8 0-1.2 1.1-.7 2.3-1.1 3.6-1.3.5.1 1 .5 1.3.8 1.2 1.2-.2 2.9.6 4.2.3-.1.3-.5.4-.7.4-.9-.1-1.9-.3-2.8-.3-.6-.5-1-1-1.5.1-.1.2-.1.3-.1.5.4 1.1.8 1.5 1.3.7 1.2 1.1 2.6 1 4.2-.2.8-1 1.1-1.6 1.4-.2.2-.6.5-.7.8.3.2.7 0 1-.1.5-.2.8-.8 1.1-1.1l.1.2c0 .3-.1.7.1.7.1-.4.2-.9.2-1.3.3.4.4.8.5 1.3.2.5.6 1.1 1.2 1.1.2-.2 0-.5-.1-.7-.1-.6-.6-1-1-1.4-.9-1.2-.5-3.1-1.2-4.5-.2-.7-.8-1.3-1.4-1.9l.1-.1c1.2 0 2.3.4 3.4.6 1.4.7 3.4.5 4.1 2.3.3 1 .7 2 1.4 2.7l.1-.1c.2-.2.2-.7 0-.9-.2-1.3-1.3-1.6-1.8-2.6l.1-.1c.6.2 1.2.3 1.8.6 2 .6 3.4 2.5 3.7 4.6 0 1.6-.3 3-.9 4.4-.1.2-.4.4-.2.6.3-.2.3-.5.5-.8.8-1.4 1.3-3.3.8-5.1 0-.3-.4-.6-.2-.9.1.2.3.2.4.2.2-.1.4-.1.5-.3 0-.2.1-.3 0-.5-.2-.2-.5-.2-.7-.2-.1.2-.3.4-.3.6-.2-.4-.5-1-.9-1.3l.1-.1c1.1.4 2.2.9 3.3 1.2.2.2.5.3.9.3 1 .4 2.1.5 3.1.8.8-.1 1.4.3 2.1.1v-.1c-.3-.4-.9 0-1.2-.3-1.7-.2-3.4-.6-5-1.2 0-.1.1-.1.2-.1.2-.1.4-.4.4-.6-.1-.2-.3-.3-.6-.3-.2.1-.4.2-.4.4s.2.4.4.5c-.1.1-.2 0-.2 0-.8-.4-1.5-.7-2.3-1-.3-.1-.5-.3-.8-.3-.6-.3-1.2-.6-1.7-.8-1.6-.8-3.4-1.3-5.1-1.9l-1.1-.3-1.9-.5c-2.1-.5-5-.6-6.9.6-.3-.1-.5.4-.6.1.5-1.4 2.1-1.9 3.5-1.9 10.1-.1 19.6-.2 29.6-.3 1.2 0 2.3-.4 2.9-1.5.1.3.2-.8-.1-1.4zm-40.2 9.3c-.1.3-.3.6-.3.9l-.1.1-.2-1-.4-1c-.2-.4.2-.6.4-.9.4.2.5.5.7.8.2.4-.1.7-.1 1.1zM69.8 42.1c0 .1.2.1.1.2-.9.8-2.1 1-3.4 1.1l-.3.1c-.1-.1-.1-.1-.1-.2.9-1 2.3-1.5 3.7-1.2zM65.7 42.6c.1.4-.1.6-.4.7-.3 0-.4-.2-.6-.4-.1-.2.1-.3.2-.4.2-.3.7-.3.8.1zM17.7 42.6c.1.2 0 .4-.1.5s-.3.2-.5.1c-.2 0-.3-.2-.3-.4s.1-.4.3-.5c.2.1.4.1.6.3zM13.2 44.3v.2c-.6.1-1.2 0-1.6-.4-.4-.5-.8-1-1.3-1.3 0-.1-.2-.2 0-.2 1.2 0 1.9 1 2.9 1.7zM73.6 42.6c-.6.9-1.1 1.9-2.1 2.3-.2 0-.3.3-.5.1.4-1 1.3-2 2.2-2.4.2 0 .3-.1.4 0zM19.2 42.9c0 .3-.2.3-.4.5-.2 0-.3-.1-.4-.3-.1-.3.1-.4.3-.5.1 0 .4.1.5.3zM76.8 43c-.2.3-.1.8-.4 1.2-.5.6-.9 1.2-1.7 1.4-.1-.2.2-.5.3-.7.4-.8.9-1.6 1.8-1.9zM5.3 43.3c.1.2.2.4 0 .6-.1.1-.4.2-.6.1s-.3-.4-.2-.6c.2-.3.7-.4.8-.1zM3.9 43.6c0 .1.1.2.1.4-.1.1-.2.3-.4.3-.3.1-.5-.1-.6-.3 0-.2.1-.4.2-.5.3-.2.6-.1.7.1zM6.9 43.7c.1.2.1.6-.2.6-.4.2-.6-.1-.8-.3 0-.2.1-.4.3-.5.3 0 .5 0 .7.2zM11 44.1c0 .2 0 .4-.2.5-.1.1-.4.1-.5.1-.1-.2-.3-.3-.2-.5.1-.1.2-.2.4-.3.2 0 .4-.1.5.2zM79.3 44.2c-.1.2-.2.4-.4.4s-.5-.1-.6-.3c-.1-.3.1-.4.3-.5.3 0 .6.2.7.4zM74.6 44.4c0 .2-.2.4-.3.4-.4.2-.7-.1-.8-.4.1-.2.2-.4.4-.5.4 0 .6.2.7.5zM77.8 44.3c0 .2-.1.4-.2.4-.2.1-.5.1-.6-.1-.2-.2-.1-.4.1-.5.2-.1.6-.1.7.2zM4.7 44.7c.1.3-.1.5-.3.6-.2 0-.5-.1-.6-.4 0-.2.1-.5.2-.5.3 0 .5.2.7.3zM73.4 45c.1.3-.1.5-.4.7-.2.1-.3-.1-.5-.2-.1-.1-.2-.4 0-.5.2-.4.7-.3.9 0zM18.3 45.3c.1.3-.2.3-.3.5-.1.1-.3.1-.4 0-.1-.2-.3-.3-.2-.5.1-.1.2-.2.3-.2.3-.2.4 0 .6.2zM78.8 45.5c.1.2-.1.3-.1.4-.2.1-.4.2-.6.1-.2-.1-.2-.3-.2-.6.1-.1.2-.2.4-.3.1 0 .4.1.5.4zM77.2 45.6c.1.3-.2.5-.4.5-.1 0-.2-.1-.3.1.7.3 1.1.9 1.6 1.3v.2c-.9 0-1.8-.2-2.5-1-.2-.1-.5-.1-.7-.3.3-.3.9-.2 1.4-.2.3-.4-.4-.6.1-.9.2 0 .2-.2.5-.1.1.1.2.2.3.4zM66.9 45.6c.1.1-.1.3-.1.4-.2.2-.4.2-.6.1-.1-.2-.3-.3-.2-.6.2-.4.8-.3.9.1zM10.4 46.5c-.1.2-.2.4-.4.4s-.4-.1-.5-.3c0-.2.1-.3.1-.4.3-.3.8-.1.8.3zM12.4 46.1c0 .4-.4.6-.5.9-.4.8-1.1 1.6-2 1.7-.1-.2.3-.5.4-.7.4-.9 1.2-1.3 1.9-1.9h.2zM66.3 46.5c0 .3-.2.5-.4.6-.2.1-.4-.1-.5-.2-.2-.2-.1-.4 0-.6.3-.3.7-.1.9.2zM67.9 46.7c0 .3-.2.5-.5.6l-.2-.1c-.2-.1-.3-.3-.3-.5.1-.1.2-.3.4-.4.1 0 .5.1.6.4zM16.4 46.6c0 .3-.2.4-.4.5-.2 0-.4-.1-.5-.3-.1-.2.2-.4.3-.5.3 0 .4.2.6.3zM18.1 46.7c-.1.2-.2.4-.5.4-.2-.1-.4-.1-.5-.3 0-.3.2-.4.4-.5.3.1.5.2.6.4zM73.3 48.5c.1.1.4.2.3.4-.4.2-.7-.3-1.1-.4-.6-.6-1.1-1.3-1.3-2 .2-.2.5.1.7.1.5.6 1.1 1.2 1.4 1.9zM74.2 46.7c.1.2.1.4-.1.6-.2.3-.5.2-.7.2-.1-.2-.4-.4-.2-.6.1-.2.3-.3.5-.3.2-.1.3.1.5.1zM20.4 47.4c0 .2.1.5-.2.6-.2.1-.5 0-.6-.3s.1-.4.3-.5c.2 0 .4.1.5.2zM67.8 49.1c.4.5.6 1.1.7 1.8-.1.2.1.4 0 .5h-.2c-1.1-.8-1.4-2-1.8-3.1-.1-.1-.1-.2-.1-.3.2-.2.4.2.7.3l.7.8zM23.7 48.2c-1 .8-2.4 1.2-3.6.5 0-.1 0-.2.1-.2.7-.2 1.4-.6 2.2-.5l1.3.2zM17.9 48.3c-.9.5-1.6 1.6-2.7 1.8-.2.1-.3.4-.6.2.5-1.4 1.9-2.1 3.3-2.2v.2zM66.3 49.5c.1.2 0 .5-.2.5-.1.1-.4.1-.5 0-.2-.1-.2-.3-.2-.5.1-.2.2-.2.4-.3.2.1.4.1.5.3zM64.2 49.6c-.2.4-.6.6-.9.7-.9.3-1.6-.1-2.4-.3 0-.2.3-.1.4-.2.8-.2 1.7-.4 2.6-.1 0-.2.2-.2.3-.1zM17.9 50.3c-.1.1-.1.3-.3.4-.2.1-.4 0-.5-.1-.1-.2-.2-.3-.1-.5s.2-.2.4-.3c.3.1.5.3.5.5zM19.4 50.6c-.1.2-.2.4-.4.5-.2.1-.4-.1-.5-.2-.1-.2-.2-.3-.1-.5.1-.1.2-.2.4-.2.3-.1.5.2.6.4zM65.8 50.8c0 .2-.1.3-.2.5s-.4.2-.6.1c-.2 0-.2-.2-.3-.4-.2-.2.1-.3.2-.5.3-.2.8-.1.9.3zM66.9 50.8c0 .1.1.2.1.4-.2.1-.2.5-.6.3-.1.1-.2-.2-.3-.2-.1-.3 0-.6.3-.7.2-.1.4.1.5.2zM18.5 51.5c.1.3-.1.5-.2.7-.3.1-.6.1-.7-.3 0-.2 0-.6.3-.7.2 0 .5 0 .6.3zM20 51.4c-.1.7-.2 1.6-.9 2-.4.1-.8.5-1.2.2v-.1c.5-.8 1.4-1.4 2.1-2.1zM61.8 52c.1.2-.1.3-.1.4-.1.2-.4.1-.6 0-.2-.1-.2-.3-.1-.5s.2-.2.3-.3c.2 0 .4.2.5.4zM22.5 53.2c.4.6.2 1.4.4 2-.4.1-.6-.4-.9-.7-.6-.8-.5-1.8-.7-2.7.1-.1.1-.1.2-.1.4.2.7.7 1 1.1-.2.2 0 .2 0 .4zM63.1 52.2c0 .2-.2.3-.4.4-.2 0-.3-.1-.5-.2-.1-.2.1-.3.2-.5.4-.1.6 0 .7.3zM66.1 54.5c0 .1 0 .2-.2.2h-.1c-.7-.7-1.5-1.4-1.4-2.4h.2c.7.5 1.5 1.1 1.5 2.2zM64.2 53.6c0 .2-.1.4-.2.5-.3.1-.7.1-.8-.3 0-.3.3-.4.4-.5.3-.1.5.1.6.3zM62.5 54.2c-.4.9-1.3 1.4-2 2.1-.1-.1-.1-.3-.1-.4.2-1 1-1.9 1.9-2.3.6.1.2.4.2.6zM64.4 54.9c0 .2-.2.3-.4.5-.2 0-.4-.1-.6-.3 0-.3.2-.3.3-.5.4 0 .6.1.7.3zM45.6 8.7c.3 0 .6.3.6.6s-.3.6-.6.6h-7.5c-.3 0-.6-.3-.6-.6s.3-.6.6-.6h7.5zm-5.3 1.1c.7 0 0-.9-.4-.9h-.6c-.7 0 0 .9.4.9h.6zm3.1 0c.7 0 0-.9-.4-.9h-.7c-.7 0 0 .9.4.9h.7zm2.3-.9h-.3c-.7 0-.1.9.3.9.5 0 .5-.9 0-.9zM45 17.3l1.4.5 1.4-.5-.6 2.1 1.1-.2-.4 1.3.4 1.2-1-.3.4 2.3-1.4-.5-1.4.5.6-2.3-1.1.3.3-1.3-.3-1.2 1.1.2-.5-2.1zm2.1 3.8c.3 0 .4-.4.4-.8 0-.9-.7 0-1-.8-.3.7-1 .1-1 .8 0 .5 0 .8.5.8h1.1zm-1.4-.7c0 .3.4.1.8.1.3 0 .8.2.8-.1 0-.5-.4-.3-.8-.3-.4-.1-.8-.2-.8.3zM41.6 20.4v-.2l-.2-.1.2-.2-.1-.2h.2l.2-.2.1.2h.2l-.1.2.2.2-.2.1v.2l-.2-.1zM40.5 21.9v-.3l-.2-.1.2-.1-.1-.3.2.1.1-.3.2.3.2-.1-.1.3.2.1-.2.1v.3l-.3-.2zM42.4 21.7v-.3h-.2l.2-.2-.2-.2h.3l.1-.3.2.3h.2l-.1.2.2.2h-.2v.3l-.3-.2zM42.6 22.8v-.2h-.1l.1-.1-.1-.2.2.1.1-.2v.2l.2-.1-.1.2.1.1h-.1v.2l-.1-.1zM40.9 24v-.5l-.4-.1.3-.3-.2-.4.4.1.3-.5.2.5.4-.1-.2.4.4.3-.4.1v.5l-.4-.3zM41.8 0l.9 2.2 2.2-.7-1.1 2.1 1.9 1.3-2.3.4.1 2.4-1.7-1.6-1.8 1.6.2-2.4-2.4-.4 2-1.3-1.2-2.1 2.3.7zM33.6 49c-.3.1-.4.2-.3.5l.3 1.3c.1.2.1.6-.1.9s-.6.5-.9.5c-.2.1-.7.1-1.1 0-.2-.1-.4-.2-.5-.7l-.3-1.4c-.1-.4-.2-.3-.5-.3v-.1l1.7-.4v.1c-.3.1-.5.1-.4.5l.3 1.4c.1.2.2.8.9.6.9-.2.7-.9.7-1.1l-.3-1.3c-.1-.3-.2-.4-.6-.3v-.1l1.1-.3v.2zM36.1 49.3c-.2-.3-.6-.7-1.2-.6-.3.1-.5.2-.4.5.1.2.2.3.6.4l.8.1c.2 0 .6.2.7.7.1.4-.1 1-1.1 1.2l-.9.1c-.1 0-.1.1-.1.2h-.1l-.2-1h.1c.2.4.6.8 1.2.7.6-.1.5-.6.5-.6-.1-.3-.3-.3-.7-.4l-.4-.1c-.9-.2-1-.5-1.1-.7-.1-.3 0-.9.9-1.1.4-.1.7 0 .8 0s.1-.1.1-.2h.2l.3.8zM39.5 51l-1.8.2v-.1c.4-.1.5-.1.5-.4l-.2-2.3c-.4.1-.9.1-.9.8h-.1l-.1-.9 3.1-.3.1.9h-.1c-.2-.7-.7-.7-1.1-.6l.2 2.3c0 .4.2.4.5.4h-.1zM43.7 51h-1.1l-1-1.4h-.1v.8c0 .3.1.4.4.4v.1h-1.7v-.1c.4 0 .5 0 .5-.4v-1.9c0-.4-.2-.4-.4-.4v-.1h1.7c.4 0 1.5.1 1.4.8 0 .5-.5.7-.8.7l1 1.3c.1.1.1.1.2.1l-.1.1zm-2.2-1.5c.7 0 .9-.1 1-.6 0-.4-.2-.6-.6-.6-.3 0-.3 0-.3.2l-.1 1zM47.1 51.4l-1.7-.2v-.1c.3 0 .4 0 .4-.1s-.1-.5-.2-.6l-1.2-.1c-.2.3-.3.5-.3.5 0 .2.2.2.4.2v.1l-1-.1v-.1c.3 0 .4-.1.6-.4l1.4-2.2h.1l.9 2.4c.3.5.4.6.6.7zm-1.4-1.2l-.4-1.1-.6 1 1 .1zM50.1 52l-2.9-.5v-.1c.3 0 .4 0 .5-.2l.4-2.1c.1-.3-.2-.3-.4-.4v-.1l1.8.3v.1c-.4-.1-.5-.1-.6.3l-.4 2c0 .2.1.3.4.3.8.1 1.1-.2 1.4-.6h.1l-.3 1zM52.1 52.5l-1.8-.4v-.1c.3 0 .5.1.5-.2l.4-2.1c.1-.3-.2-.3-.4-.4v-.1l1.8.4v.1c-.2 0-.5-.1-.5.2l-.4 2.1c-.1.3.1.3.4.5zM55.7 52.9l-1.7-.2v-.1c.3 0 .4 0 .4-.1s-.1-.5-.2-.6l-1.2-.1c-.2.3-.3.5-.3.5 0 .2.2.2.4.2v.1l-1-.1v-.1c.3 0 .4-.1.5-.5l1.4-2.2h.1l.9 2.4c.2.5.2.6.5.7l.2.1zm-1.5-1.1l-.4-1.1-.6 1 1 .1zM42.5 18c0-1-.6-.1-.9-.9-.2.7-.9.1-.9.9 0 .3.1.5.2.6v.3c0 .1.1.1.1.1h1.1c.1 0 .1-.1.1-.1v-.3c.2-.1.3-.3.3-.6zm-.9.2c-.3 0-.7.2-.7-.1 0-.5.3-.4.7-.4.3 0 .8-.1.8.4-.1.3-.5.1-.8.1zM51.5 30.8c.3 0 .5-.2.5-.4s-.2-.4-.5-.4-.5.2-.5.4.3.4.5.4zM49.3 15.4l-.2.4c0 .1.1.2.2.2s.2-.1.2-.2l-.2-.4zM34 15.4l-.2.4c0 .1.1.2.2.2s.2-.1.2-.2l-.2-.4zM37.8 15.4l-.2.4c0 .1.1.2.2.2s.2-.1.2-.2c.1 0-.2-.4-.2-.4zM41.6 15.4l-.2.4c0 .1.1.2.2.2s.2-.1.2-.2c.1 0-.2-.4-.2-.4zM45.5 15.4l-.2.4c0 .1.1.2.2.2s.2-.1.2-.2l-.2-.4zM34 20.6l.2.4c0 .1-.1.2-.2.2s-.2-.1-.2-.2c0 .1.2-.4.2-.4zM34 25.7l.2.4c0 .1-.1.2-.2.2s-.2-.1-.2-.2c0 .1.2-.4.2-.4zM34.6 29.7l.2.4c0 .1-.1.2-.2.2s-.2-.1-.2-.2c0 .1.2-.4.2-.4zM37.8 31.9l.2.4c0 .1-.1.2-.2.2s-.2-.1-.2-.2l.2-.4zM49.5 20.6l-.2.4c0 .1.1.2.2.2s.2-.1.2-.2c0 .1-.2-.4-.2-.4zM49.5 25.7l-.2.4c0 .1.1.2.2.2s.2-.1.2-.2c0 .1-.2-.4-.2-.4zM48.9 29.7l-.2.4c0 .1.1.2.2.2s.2-.1.2-.2c0 .1-.2-.4-.2-.4zM45.7 31.9l-.2.4c0 .1.1.2.2.2s.2-.1.2-.2l-.2-.4zM41.8 34.2l-.2.4c0 .1.1.2.2.2s.2-.1.2-.2l-.2-.4zM48 26.6c.1.1.2.1.3 0l.1-.4s-.2-.2-.3-.2c-.4.1-.8.1-1.1.5 0 .3.2.5.4.6.1-.1.2.1.3.2 0 .1-.1.2-.2.2-.3-.3-.8.1-1-.3.1-.4.3-.8 0-1.1l.1-.2c-.1-.3-.5-.1-.7-.1-.4-.1-.7.1-.9.4 0 .1.1.2.2.4.1 0 .1 0 .2.1l-.2.1c.1.1.1.2.1.3-.2.1-.3-.2-.4-.3 0-.2 0-.5-.2-.6-.1 0-.2.1-.2.1-.1.1-.1.2-.1.4l.1.4s.7.5.9.9c-.2.4-.2 1-.7 1.3-.1.1-.1.2-.1.4l.1.1c.3-.2.9-.2.9-.7.1-.2.2-.5.5-.6.2-.1.5.1.5.3-.1.4-.3.6-.6.7v.2c.1.2.4.1.5.1.4-.3.6-.7.9-.9.1.2-.5.3-.1.6.2-.1.5 0 .7-.3-.2-.4.6-.6.1-1l.4-.9c-.1-.4-.6-.4-.7-.7-.2-.1 0-.1.2 0zM30.4 31c.3 0 .5-.2.5-.4s-.2-.4-.5-.4-.5.2-.5.4c.1.2.3.4.5.4zM5.7 45.4c.3 0 .5-.2.5-.4s-.2-.4-.5-.4-.5.2-.5.4.2.4.5.4zM21.4 48.9zm0 0zM21.5 48.9zM21.7 48.9zM21.7 48.9zm0 0zM21.8 48.9zM50.6 14.8h-17.6v13.5c0 1.4.6 2.6 1.4 2.9l6.8 4.3c.1.2.4.3.6.3.2 0 .4-.1.5-.2l6.9-4.4c.8-.4 1.4-1.6 1.4-2.9v-13.5zm-.5 13.6c-.1 1-.4 1.9-1.1 2.3l-6.6 4.2c-.1.1-.3.2-.5.2s-.4-.1-.5-.2l-6.6-4.2c-.7-.5-1-1.3-1.1-2.3v-13.1h16.6l-.2 13.1zM44.1 34.4l.2-.1-.2.1zM30.8 52.8l-1.7.2v-.1c.3-.1.4-.1.4-.2s-.2-.4-.3-.5l-1.2.1c-.1.3-.2.5-.2.6 0 .2.3.1.4.1v.1l-1 .1v-.1c.3-.1.3-.2.4-.6l.9-2.5h.1l1.4 2.1c.3.4.4.6.6.5l.2.2zm-1.6-.8l-.6-1-.4 1.1 1-.1zM60 46.5c-.3-.8-.9-1.3-1.7-1.6-.8-.2-1.7-.1-2.2.6-.9.7-.3 2-.2 3 0 .2 0 .4-.2.5-3.7-.3-7.1-1.2-10.7-1.6-.8-.1-1.7-.1-2.5-.3l-1-.1c-3.2.1-6.3.3-9.3 1-.6.2-1.3.2-2 .5l-1.3.1-.8.2h-.3l.4-2.7c-.3-.6-1-1.1-1.7-1-.9-.1-1.6.4-2 1-.6 1.3.2 2.6.4 3.8-.1.4.4.9 0 1.2-.8-.6-1.9-.9-2.9-.6-.3.2-.9-.1-1 .3 1.1.6 2.5.5 3.7.5.2-.1.3-.1.4 0 .1.7-.1 1.6.3 2.1.5.6 1.2.8 1.9.8 2.3-.1 4.4-.8 6.5-1.3l.9-.2c1.1-.3 2.4-.5 3.6-.5-.5.7-.8 1.5-1.1 2.3-.3.7.5.8.8 1.2-.8.2-1.3.8-2.1 1.1-1.6-.1-3 .6-4.5.7 0 .3.5.2.6.6-.1.2-.3.3-.5.4 0 .2 0 .2.2.2.2-.2.5-.1.6-.2l1.4-.2c.4-.2.9-.2 1.3-.5l1.4-.7c.8 0 1.4-.3 2.1-.3v.2l-1.8 2.8c-.1.2 0 .4.2.4.4.1.7 0 1-.2.5-.9 1-1.8 1.4-2.7.2-.9.8-1.3 1.4-1.9.1-.1.2-.2.4-.1-.5.6-.8 1.2-1.2 1.8-.2.7-.3 1.6.4 2.2.3.3.8.2 1.2.2 1-.5 2.2.3 3-.7.5-.1.5.5.8.7.4.1.9.6 1.3.2 0-.3-.3-.5-.5-.8l-1-1.5c-.1-.4-.4-.6-.4-.9.5.2.9.5 1.4.5l1.4.4c.3.4.8.7 1.3 1 .6.3 1.3.4 2 .6.2 0 .6.2.8 0-.1-.1-.2-.2-.4-.3-.1-.3.5-.2.6-.4-.1-.1-.2-.2-.3-.2-.4-.2-1.3-.3-1.5-.4l-.9-.3c-1.5 0-2.4-1.4-3.6-1.9.3-.3.7-.5.9-.8.2-.4.3-.9.1-1.3-.2-.8-1.2-.7-1.8-1.1l.1-.1c1-.1 1.8.2 2.7.4 2.4.3 4.7 1.2 7.2 1.3 1.4 0 3.1.1 3.8-1.3l.4-2.4c.4-1.1 1.2-2.3 1.1-3.7zm-27.3 11.6l-.4-.3.8-.3c.7-.2 1.4-.5 2.1-.3-.6.6-1.6.7-2.5.9zm15.8-.4c.6.3 1.8.5 2.7.6-.1.3-.7 0-.6.5-.8-.3-1.7-.5-2.3-1.1h.2zm-23.7-10.8c.1-.5.2-.9.6-1.3.6-.3 1.4-.2 2 .1.2.1.3.2.4.5.1.4-.1.9-.4 1.2h-.2c0-.4 0-.8.2-1.2 0-.3-.3-.3-.5-.5-.4-.1-.8.1-1.1.3-.2.3-.5.7-.3 1.1.2.3 0 .7.1 1l-.1.1c-.4-.4-.8-.7-.7-1.3zm1.2.7c.4.3.9.2 1.4.2.1.3.1.6-.1.9-.4-.1-1-.1-1.2-.5-.1-.1-.2-.4-.1-.6zm-.1-.9c.1-.2 0-.5.3-.6.2-.1.5-.1.5.2l-.1.9c-.4.1-.6-.2-.7-.5zm11.8 8.2c-.1-.9.2-1.7.8-2.3.4-.1.8-.2 1.1.1-.7.2-1.5.3-1.6 1.2 0 .3-.1.5.1.8.3.5.9.3 1.3.7 0 .1-.1.3-.2.3-.5-.3-1.1-.5-1.5-.8zm-.9 1.8c.6-.3 1.2-.8 1.9-.6-.4.4-1.2.5-1.9.6zm2.4.2l-1.2 2.4c-.1.1-.3.2-.4.2 0-.4.4-.6.5-.9.5-.7.7-1.4 1.3-2.1l-.2.4zm.7-1.4c0-.1-.1-.1 0 0zm-.3-.7l-1.2-.3c-.2-.3 0-.5 0-.8.4-.6 1.4-.8 1.8-.3 0 .5-.2 1-.6 1.4zm.6 0c.1-.3.2-.8.4-1.1 0 .3-.2.8-.4 1.1zm.3-2.1c-.3-.1-.5-.5-.9-.5.3-.1.6-.1 1 0 .1.2-.1.4-.1.5zm.3.8v-.3.3zm0 1.1c0-.1.1-.2.1-.4.1-.1.2.1.3.2-.1.2-.3.3-.4.2zm.4-1.5c.1-.4.1-.7.4-.9.2 0 .5 0 .7.1.1.5.7 1.2 0 1.6-.2.1-.6.3-.8.1-.4-.3-.5-.6-.3-.9zm1.8-.8c-.1-.2.2-.1.3-.2l.8.1c-.4 0-.9.9-1.1.1zm1.3.4c-.3.1-.5.5-.8.5.1-.3.5-.5.8-.5zm-1.1 1.6zm.1 1.5c0 .1 0 .1-.1.2l-.6-.5c.3 0 .5.1.7.3zm-.7-.8c.1-.1.2-.1.2 0h-.2zm-.4-.4c.1-.2.2-.4.4-.4 0 0 0 .1.1.1-.2.2-.3.3-.5.3zm-.6 0l.1-.2c.1.1 0 .1-.1.2zm.1.9c.3-.4.6.2.8.5.4.6 1.4 1.1 1 1.8l-1.8.4c-.3 0-.8.1-.9-.2.3-.8.5-1.7.9-2.5zm-.7.5l.1-.2c-.2.6-.5 1.2-.8 1.8-.1-.5.5-1 .7-1.6zm1.1 3.1c-.5 0-1.2.3-1.7-.1l-.2-.5c.4-.2.8.3 1.1 0 .6 0 1.2-.1 1.8.1.3.1.7-.5.8.1-.2.7-1.2.1-1.8.4zm1.5-3.7zm.1 1.6c0 .3.3.4.1.6 0-.1-.1-.3-.1-.6zm.8 1.5c-.2 0-.2-.3-.2-.4.1.1.2.3.2.4zm1.2.6c0 .1-.2.1-.2 0-.8-1-1.1-2-1.6-3.1h.1c.6 1.1 1.1 2.2 1.7 3.1zm1-2.3c-.1 0-.1.1 0 0-.8.1-1.3-.3-1.9-.7v-.1c.7 0 1.2.5 1.9.8zm-.7-3.4c.3.1.3.4.4.7 0 .6-.3 1-.9 1.2-.3.2-.7.2-1 .1.6 0 1.3-.2 1.5-.9v-1.1zm-.6-.1c.1.4.4.7.2 1.1-.2.5-.8.5-1.2.6-.2 0-.4-.1-.6-.2 0-.1 0-.2-.1-.2.1-.3-.6-.7-.1-.9.5-.4 1.4-1.3 1.8-.4zm12.9-1.8c-.2.2 0 .7-.3.9 0 .5-.4.7-.7.9-3 .7-6-.4-8.9-.9-4.1-.9-8.8-1.1-13-.2-1.9.4-3.8.8-5.7 1.3-1.2.2-2.4.3-3.5 0-.9-.4-.5-1.6-.8-2.4.1-.6-.2-1.1-.2-1.8-.1-.2-.1-.5-.1-.7l1.2.4c2.1.4 4-.3 6-.6 1.9-.4 3.8-.7 5.8-.9 2.3 0 4.6-.2 6.8.2l2 .2c1.4.2 2.7.6 4.2.7.2.1.5.1.8.1 2.3.4 4.8 1 7 0-.1 1-.5 1.9-.6 2.8zm-.7-3.1c0 .4-.4.3-.6.5h-.6c-.1-.2-.1-.5-.1-.7.4 0 .9 0 1.3.2zm-.3-.7c.3-.3-.1-1.9.7-.8 0 .2 0 .5-.2.7-.1 0-.3.2-.5.1zm2-.2c-.2.5-.6.8-1.1.9 0-.6.6-1 .4-1.7-.3-.5-1-.6-1.6-.5-.2.2-.1.4-.2.6l-.1.8c-.5 0-.5-.5-.7-.8 0-.5.3-1.1.8-1.3.4-.2 1.1-.2 1.5.1.3.1.7.2.8.5.4.3.3.9.2 1.4z"/><text transform="translate(92.235 39.2)" class="st0 st1 st2">Australian Government</text></svg>