<svg xmlns="http://www.w3.org/2000/svg" viewBox="0 0 193.6 224.8" enable-background="new 0 0 193.6 224.8"><style type="text/css">.st0{fill:#577292;} .st1{fill:#F2F2F2;} .st2{fill:#56728F;}</style><path class="st0" d="M193.3 190.4h-50.8c-32.7 0-65.5-.3-98.2.1-22.2.3-44.9-19.6-44.3-45 1.1-45.6.3-91.2.3-136.8v-8.2c2.7-.1 5-.3 7.2-.3 47.9 0 95.9.5 143.8-.2 19.6-.3 42.7 22.2 42.3 42.1-1 47-.3 94-.3 141v7.3z"/><path class="st1" d="M66.9 71c0 10.5-2.2 16.8-6.5 20.9-4.5 4-10.9 5.5-16.7 5.5-5.5 0-11.5-1.3-15.1-3.8l2.1-6.4c3 2 7.7 3.7 13.4 3.7 8.5 0 14.7-4.4 14.7-16v-5h-.2c-2.4 4.2-7.4 7.6-14.5 7.6-11.3 0-19.4-9.6-19.4-22.2 0-15.4 10.1-24.1 20.6-24.1 7.9 0 12.1 4 14.2 7.8h.2l.3-6.9h7.3c-.3 3.2-.4 7-.4 12.4v26.5zm-8.3-20.9c0-1.4-.1-2.6-.5-3.7-1.5-4.9-5.5-8.8-11.6-8.8-7.9 0-13.6 6.7-13.6 17.2 0 8.9 4.6 16.4 13.5 16.4 5.2 0 9.8-3.2 11.5-8.5.5-1.4.7-3 .7-4.4v-8.2zm63.2 4.5c0 16.8-11.8 24.2-22.7 24.2-12.2 0-21.8-9-21.8-23.4 0-15.1 10.1-24.1 22.6-24.1 13-.1 21.9 9.4 21.9 23.3zm-36.1.4c0 10 5.6 17.5 13.7 17.5 7.9 0 13.8-7.4 13.8-17.7 0-7.7-3.9-17.4-13.6-17.4s-13.9 9.1-13.9 17.6zm49-22.8l8.9 25.5c1.5 4.2 2.7 8 3.7 11.8h.3c1-3.8 2.4-7.5 3.9-11.8l8.8-25.5h8.7l-17.9 45.5h-7.9l-17.3-45.5h8.8zm-67.5 65v55c0 4 .2 8.7.4 11.8h-7.3l-.4-7.9h-.3c-2.4 5.1-7.9 8.9-15.3 8.9-11 0-19.6-9.3-19.6-23.1-.1-15.2 9.4-24.4 20.4-24.4 7.1 0 11.7 3.3 13.7 6.9h.2v-27.2h8.2zm-8.2 39.8c0-1-.1-2.4-.4-3.5-1.2-5.2-5.7-9.5-12-9.5-8.6 0-13.6 7.5-13.6 17.5 0 9.2 4.6 16.8 13.5 16.8 5.6 0 10.6-3.8 12.1-9.9.3-1.1.4-2.3.4-3.6v-7.8zm26.6 5.7c.2 11.2 7.2 15.8 15.6 15.8 5.9 0 9.6-1 12.6-2.4l1.5 5.9c-2.9 1.3-8 2.9-15.2 2.9-14 0-22.4-9.3-22.4-23.1 0-13.7 8.1-24.5 21.4-24.5 15 0 18.8 13 18.8 21.4 0 1.7-.1 2.9-.3 3.9l-32 .1zm24.3-5.9c.1-5.2-2.2-13.4-11.5-13.4-8.5 0-12 7.6-12.7 13.4h24.2zm21.8-18.3l6.5 9.8c1.8 2.5 3.2 4.8 4.7 7.3h.2c1.5-2.6 3-5 4.6-7.4l6.3-9.7h9l-15.5 22 15.9 23.5h-9.3l-6.8-10.3c-1.8-2.6-3.3-5.2-4.9-7.9h-.2c-1.5 2.7-3 5.2-4.8 7.9l-6.6 10.3h-9.1l16.2-23.2-15.4-22.3h9.2z"/><path class="st2" d="M34.7 213.5c1 .6 2.8 1.3 4.5 1.3 2.4 0 3.6-1.2 3.6-2.8s-1-2.5-3.4-3.4c-3.4-1.2-5-3.1-5-5.3 0-3 2.5-5.5 6.5-5.5 1.9 0 3.6.5 4.6 1.2l-.8 2.5c-.7-.5-2.1-1.1-3.8-1.1-2 0-3.1 1.2-3.1 2.6 0 1.5 1.1 2.2 3.5 3.2 3.2 1.2 4.9 2.8 4.9 5.6 0 3.3-2.6 5.6-7 5.6-2 0-3.9-.5-5.3-1.3l.8-2.6zm31.5-1.7c0 2 0 3.7.2 5.1h-3l-.2-3.1h-.1c-.9 1.5-2.9 3.5-6.2 3.5-2.9 0-6.5-1.7-6.5-8.2v-10.9h3.4v10.3c0 3.6 1.1 6 4.2 6 2.3 0 3.9-1.6 4.5-3.1.2-.5.3-1.1.3-1.7v-11.4h3.4v13.5zm5.6-7.4c0-2.4-.1-4.3-.2-6.1h3l.2 3.2h.1c1.4-2.3 3.6-3.6 6.7-3.6 4.6 0 8 3.8 8 9.5 0 6.7-4.1 10.1-8.5 10.1-2.5 0-4.6-1.1-5.8-2.9h-.1v10.2h-3.4v-20.4zm3.4 5c0 .5 0 1 .2 1.4.6 2.4 2.7 4 5.1 4 3.6 0 5.7-2.9 5.7-7.2 0-3.7-2-6.9-5.6-6.9-2.3 0-4.5 1.6-5.1 4.2-.1.4-.2.9-.2 1.4v3.1h-.1zm18.6-5c0-2.4-.1-4.3-.2-6.1h3l.2 3.2h.1c1.4-2.3 3.6-3.6 6.7-3.6 4.6 0 8 3.8 8 9.5 0 6.7-4.1 10.1-8.5 10.1-2.5 0-4.6-1.1-5.8-2.9h-.1v10.2h-3.4v-20.4zm3.4 5c0 .5 0 1 .2 1.4.6 2.4 2.7 4 5.1 4 3.6 0 5.7-2.9 5.7-7.2 0-3.7-2-6.9-5.6-6.9-2.3 0-4.5 1.6-5.1 4.2-.1.4-.2.9-.2 1.4v3.1h-.1zm35.6-1.9c0 6.9-4.8 9.9-9.3 9.9-5 0-9-3.7-9-9.6 0-6.2 4.1-9.9 9.3-9.9 5.3 0 9 3.9 9 9.6zm-14.8.2c0 4.1 2.3 7.2 5.6 7.2 3.2 0 5.7-3.1 5.7-7.3 0-3.2-1.6-7.2-5.6-7.2s-5.7 3.7-5.7 7.3zm19.1-3.6c0-2.2 0-4.1-.2-5.8h3l.2 3.7h.1c.9-2.5 2.9-4.1 5.2-4.1.3 0 .6 0 .9.1v3.2c-.3-.1-.7-.1-1.2-.1-2.4 0-4.1 1.8-4.6 4.3-.1.5-.1 1-.1 1.6v10h-3.4v-12.9h.1zm17.7-10.3v4.5h4.9v2.6h-4.9v10.1c0 2.3.7 3.6 2.6 3.6.9 0 1.5-.1 2-.2l.2 2.6c-.7.2-1.7.5-3 .5-1.6 0-2.9-.5-3.7-1.4-.9-1-1.3-2.7-1.3-4.9v-10.2h-2.9v-2.6h2.9v-3.5l3.2-1.1z"/></svg>