<?xml version="1.0" encoding="utf-8"?>
<!-- Generator: Adobe Illustrator 19.2.1, SVG Export Plug-In . SVG Version: 6.00 Build 0)  -->
<!DOCTYPE svg PUBLIC "-//W3C//DTD SVG 1.1//EN" "http://www.w3.org/Graphics/SVG/1.1/DTD/svg11.dtd">
<svg version="1.1" id="Layer_1" xmlns="http://www.w3.org/2000/svg" xmlns:xlink="http://www.w3.org/1999/xlink" x="0px" y="0px"
	 viewBox="0 0 256 60.2" style="enable-background:new 0 0 256 60.2;" xml:space="preserve">
<style type="text/css">
	.st0{fill:#54738E;}
	.st1{font-family:'TimesNewRomanPS-BoldMT';}
	.st2{font-size:16px;}
</style>
<g>
	<g>
		<path class="st0" d="M28.4,48.2c-0.1,0.1-0.1,0.2-0.2,0.2"/>
		<path class="st0" d="M30.4,33.2c0.2,0,0.4-0.2,0.4-0.4s-0.2-0.4-0.4-0.4c-0.2,0-0.4,0.2-0.4,0.4S30.1,33.2,30.4,33.2L30.4,33.2z"
			/>
		<path class="st0" d="M49,16.2L49,16.2H34.5l0,0l0,0v11.7c0,1.1,0.5,2.1,1.1,2.4l5.6,3.3c0.1,0.1,0.3,0.2,0.5,0.2s0.3-0.1,0.5-0.2
			l5.7-3.4c0.7-0.3,1.1-1.3,1.1-2.4L49,16.2L49,16.2L49,16.2z M39.3,19.6H38v-3h1.3V19.6L39.3,19.6z M38.4,20.6l0.2-0.2l-0.1-0.2
			h0.2l0.1-0.2l0.1,0.2h0.2L39,20.4l0.2,0.2H39v0.2l-0.2-0.2l-0.2,0.2v-0.2L38.4,20.6L38.4,20.6z M34.9,24.4v-2.8h1.5v2.8H34.9
			L34.9,24.4z M35.2,20.2h0.2l0.1-0.2l0.1,0.2h0.2l-0.1,0.2l0.2,0.2h-0.2v0.2l-0.2-0.2l-0.2,0.2v-0.2h-0.2l0.2-0.2L35.2,20.2
			L35.2,20.2z M36.9,23.1h0.2l0.1-0.2l0.1,0.2h0.2l-0.1,0.2l0.2,0.2h-0.2v0.2l-0.2-0.2L37,23.7v-0.2h-0.2l0.2-0.2L36.9,23.1
			L36.9,23.1z M37.9,20.8c0-0.1-0.1-0.1-0.2-0.1c-0.1,0-0.2,0.2-0.3,0.2s-0.1,0-0.1-0.1s0.2-0.1,0.2-0.2c-0.9,0-1,0.4-1.1,0.4
			c-0.2,0,0.2-0.5,0.3-0.6c-0.2,0-0.3-0.3-0.5-0.4c0.1-0.1,0.2-0.1,0.3,0c0-0.1,0.1-0.2,0.3-0.2c0.4,0,0.3,0.4,0.4,0.4
			c0.1,0,0-0.4,0.3-0.4c0.4,0,0.9,1.1,0.5,1.1C37.7,21,37.9,20.9,37.9,20.8L37.9,20.8z M36.8,17.7l0.2-0.2l-0.1-0.2h0.2l0.1-0.2
			l0.1,0.2h0.2l-0.1,0.2l0.2,0.2h-0.2v0.2l-0.2-0.2L37,17.9v-0.2H36.8L36.8,17.7z M36.4,16.6v3h-1.5v-3H36.4L36.4,16.6z M39.3,32.1
			L35.8,30c-0.6-0.4-0.9-1.1-0.9-1.9v-3.3h4.4V32.1L39.3,32.1z M38.1,24.4v-2.8h1.3v2.8H38.1L38.1,24.4z M43.8,32.3l-1.6,1l0,0
			c-0.1,0.1-0.3,0.1-0.4,0.1s-0.3-0.1-0.4-0.2l-1.6-1v-7.5h4.1L43.8,32.3L43.8,32.3z M43.8,24.4h-4.1v-7.8h4.1V24.4L43.8,24.4z
			 M48.6,28c-0.1,0.8-0.4,1.5-0.9,1.9L44.2,32v-7.3h4.4V28L48.6,28z M48.6,24.4h-4.4v-7.8h4.4V24.4L48.6,24.4z"/>
		<path class="st0" d="M39.1,27.4c0-0.1-0.5,0.2-0.4,0.2c0-0.2,0.3-0.5,0.4-0.6c0-0.2-0.3,0-0.5,0.1c0.8-1.2,0.3-0.7-0.2-0.6
			c0.7-0.8,0.5-0.8,0-0.5c0.4-0.3,0.5-0.7,0.5-0.9c-0.4,0.5-0.8,0.4-0.8,0.9c0,0.3-0.1,0.9-0.3,1c-0.2,0.2-0.1-0.9-0.6-0.9
			c-0.2,0-0.6,0-0.7,0.2c0.1,0,0.3,0.3,0.3,0.4s0.1,0.4-0.1,0.4c-0.2,0-0.4-0.4-0.4-0.6s0-0.1,0-0.4c0-0.5-0.8-1.1-1.1-1.1
			c0,0.3,0.4,0.4,0.4,0.8c-0.2,0-0.4-0.3-0.4-0.1c0,0.2,0.3,0.2,0.3,0.4c0,0.2-0.3-0.1-0.3,0.1s0.2,0.1,0.2,0.3c-0.1,0-0.2,0-0.3,0
			c0,0.1,0,0.1,0.1,0.2c0,0-0.1,0.1-0.1,0.4c0,0.9,0.6,1.4,1,1.4c0.3,0,0.3-0.2,0.3-0.3c0,0.2,0.2-0.1,0.2,0.2
			c0,0.3-0.3,0.2-0.3,0.4c0,0.3,0.5,0,0.5,0.4s-0.1,0.4-0.1,0.6c0,0.1,0.5-0.2,0.5-0.2c0.1,0,0.1,0.4,0.3,0.4c0.1,0,0.2-0.4,0.3-0.4
			c-0.1,0,0.4,0.3,0.4,0.2c0-0.4-0.2-0.2-0.2-0.5s0.6-0.2,0.5-0.4c-0.1-0.1-0.1,0-0.2-0.2c0,0-0.5-0.7,0.1-0.3
			C39,28.8,39.1,27.5,39.1,27.4L39.1,27.4z"/>
		<path class="st0" d="M54.5,30.5c0.3,0,0.5-0.2,0.5-0.4s-0.2-0.4-0.5-0.4S54,29.9,54,30.1C54.1,30.3,54.3,30.5,54.5,30.5L54.5,30.5
			z"/>
		<path class="st0" d="M52.6,31.6c0.3,0,0.5-0.2,0.5-0.4c0-0.2-0.2-0.4-0.5-0.4s-0.5,0.2-0.5,0.4S52.4,31.6,52.6,31.6L52.6,31.6z"/>
		<path class="st0" d="M29.7,34.3c0.3,0,0.5-0.2,0.5-0.4s-0.2-0.4-0.5-0.4s-0.5,0.2-0.5,0.4S29.4,34.3,29.7,34.3L29.7,34.3z"/>
		<path class="st0" d="M31.2,34.4c0.3,0,0.5-0.2,0.5-0.4c0-0.2-0.2-0.4-0.5-0.4s-0.5,0.2-0.5,0.4S30.9,34.4,31.2,34.4L31.2,34.4z"/>
		<path class="st0" d="M72.4,14.4c0.7,0.8,0.9,2.2,0.4,3.2c-0.3,0-0.2-0.4-0.3-0.6c-0.5-0.9-0.9-2.1-0.5-3.2
			C72.4,13.8,72.2,14.3,72.4,14.4L72.4,14.4z"/>
		<path class="st0" d="M11.9,15.6c-0.2,0.6-0.2,1.5,0,2c-0.1,0.1-0.1-0.1-0.2-0.1c-1-0.7-0.5-2.1-0.8-3.1c0.1-0.1,0.2-0.1,0.2-0.1
			C11.6,14.6,11.8,15.1,11.9,15.6L11.9,15.6z"/>
		<path class="st0" d="M74.6,15.7c0.1,0.3-0.1,0.6-0.3,0.7c-0.2,0.1-0.5-0.1-0.6-0.3c-0.1-0.3,0.1-0.5,0.3-0.7
			C74.2,15.4,74.4,15.4,74.6,15.7L74.6,15.7z"/>
		<path class="st0" d="M10.4,16.8c-0.1,0.2-0.1,0.5-0.3,0.6c-0.2,0-0.4,0-0.5-0.1c-0.2-0.1-0.2-0.4-0.1-0.5c0.1-0.2,0.3-0.2,0.5-0.2
			C10.1,16.5,10.3,16.6,10.4,16.8L10.4,16.8z"/>
		<path class="st0" d="M75.6,17.2c0.1,0.2,0.1,0.3,0,0.4c-0.2,0.2-0.4,0.3-0.7,0.2c-0.2-0.1-0.2-0.3-0.3-0.4
			c0.1-0.2,0.2-0.4,0.4-0.5C75.3,16.9,75.4,17.1,75.6,17.2L75.6,17.2z"/>
		<path class="st0" d="M74.1,17.2c0.2,0.1,0.1,0.4,0,0.5C74,17.8,73.8,18,73.6,18c-0.1-0.1-0.3-0.1-0.3-0.3c0-0.3,0.1-0.5,0.4-0.6
			C73.9,17.1,74,17.1,74.1,17.2L74.1,17.2z"/>
		<path class="st0" d="M72.3,17.6c0,0.3,0,0.6-0.3,0.7c-0.3,0.1-0.5-0.2-0.6-0.4c0-0.3,0.1-0.5,0.4-0.6C72,17.3,72.2,17.5,72.3,17.6
			L72.3,17.6z"/>
		<path class="st0" d="M13.1,17.7c0.1,0.3-0.2,0.4-0.3,0.5c-0.2,0.1-0.4-0.1-0.5-0.3c-0.2-0.2,0.1-0.3,0.1-0.5
			C12.7,17.3,13,17.5,13.1,17.7L13.1,17.7z"/>
		<path class="st0" d="M11.6,17.8c0,0.2-0.1,0.4-0.3,0.5c-0.2,0.1-0.4-0.1-0.5-0.2c-0.1-0.2,0-0.5,0.2-0.6
			C11.3,17.4,11.5,17.6,11.6,17.8L11.6,17.8z"/>
		<path class="st0" d="M66.2,17.9c0.2,0.5,0.5,1.2,0.5,1.8c-0.1,0.5,0.1,1.1-0.3,1.5c-0.4-0.1-0.4-0.6-0.6-0.8
			c-0.5-0.9-0.1-1.9,0.1-2.8C66.1,17.5,66.1,17.8,66.2,17.9L66.2,17.9z"/>
		<path class="st0" d="M10.4,18.2c0.1,0.3-0.1,0.5-0.3,0.6c-0.3,0.1-0.5-0.2-0.6-0.4c0-0.2,0.1-0.5,0.3-0.6
			C10.1,17.9,10.3,18,10.4,18.2L10.4,18.2z"/>
		<path class="st0" d="M70.2,19c0.3,0.7,0.4,1.6,0.1,2.4l-0.2,0.1c-0.4-0.7-0.9-1.3-1-2.1c0-0.5,0.1-1,0.3-1.5
			c0.2-0.1,0.3,0,0.4,0.2C69.8,18.5,69.9,18.8,70.2,19L70.2,19z"/>
		<path class="st0" d="M73.4,18.5c0,0.3-0.1,0.5-0.4,0.6c-0.2,0.1-0.5,0-0.6-0.3s0.1-0.5,0.3-0.6C73,18,73.2,18.3,73.4,18.5
			L73.4,18.5z"/>
		<path class="st0" d="M11.7,19.3c0,0.2-0.2,0.4-0.4,0.5c-0.2,0.2-0.4-0.1-0.5-0.2c-0.1-0.2-0.1-0.4,0-0.6s0.2-0.2,0.4-0.2
			C11.4,18.9,11.6,19,11.7,19.3L11.7,19.3z"/>
		<path class="st0" d="M12.8,19.2c0.1,0.2-0.2,0.4-0.3,0.5c-0.3,0.1-0.5-0.1-0.6-0.3c-0.1-0.3,0.1-0.4,0.3-0.6
			C12.5,18.7,12.6,18.9,12.8,19.2L12.8,19.2z"/>
		<path class="st0" d="M74.1,19.1c0,0.3-0.5,0.7-0.6,1c-0.3,0.7-0.9,1.2-1.6,1.4c-0.1,0.1-0.4,0.3-0.6,0.3c-0.1-0.5,0.4-1,0.7-1.4
			C72.6,19.7,73.3,19.3,74.1,19.1L74.1,19.1z"/>
		<path class="st0" d="M11.2,20.2c0.4,0.4,0.6,0.8,1,1.2c0,0.1-0.1,0.3-0.2,0.3c-1.2-0.1-2.1-1.3-2.7-2.2c0.1-0.3,0.4-0.1,0.6-0.1
			C10.3,19.6,10.8,19.7,11.2,20.2L11.2,20.2z"/>
		<path class="st0" d="M74.4,20.5c-0.1,1.1-0.6,2.2-1.6,2.7c-0.3,0.1-0.6,0.4-0.9,0.2c0.5-1.1,1.3-2,2.2-3h0.3V20.5z"/>
		<path class="st0" d="M69.6,21.2c0.1,0.4-0.1,0.6-0.4,0.7c-0.3,0-0.5-0.2-0.6-0.4c0-0.2,0.1-0.5,0.4-0.6c0.1-0.1,0.2-0.1,0.3-0.1
			C69.4,21,69.4,21.1,69.6,21.2L69.6,21.2z"/>
		<path class="st0" d="M9.8,21.5c0.5,0.3,0.9,0.8,1.4,1.2c-0.3,0.2-0.7,0-1.1,0c-0.9-0.3-1.4-1-2.3-1.3c0-0.3,0.4-0.2,0.5-0.3
			C8.8,21.1,9.2,21.3,9.8,21.5L9.8,21.5z"/>
		<path class="st0" d="M36.8,13.9c-1.4-0.6-2.4,0.9-3.8,0.7c-0.2,0.1-0.1,0.3-0.2,0.4s-0.2,0-0.3,0c-0.1-0.6-0.3-1.2-0.4-1.8
			C32,13,32,12.6,31.9,12.3c-0.8-2.2,2-0.5,2.5-1.8c0.5-1.1-0.9-1.2-1.4-2V8.2c-0.4-0.4-0.8-0.5-1.1-1.1c0.2-0.6,0.2-1.3,0.1-2
			c0-0.2-0.1-0.4-0.4-0.3c-0.5,0.7-0.8,1.2-1.3,1.8c-0.5-0.4-0.9-0.8-1.5-1.1c-0.4-0.1-0.7-0.4-1.2-0.3c-0.1,0.2,0,0.3,0.1,0.4
			c0,1,0.5,1.8,1.2,2.5L29,8.5c-0.5,1-0.3,2.2-0.5,3.4c-1.1,2.9-3,5.7-5.5,7.7c-1.4,1.6-3.2,3.2-3.4,5.4c-0.1,0.4,0.1,0.8-0.2,1
			c-0.8-0.3-1.7-0.7-2.4-1.2c-1.2-0.8-2.8-0.7-3.6-2.2c-0.3-0.6,0.1-1.2,0.4-1.6c0.9-0.8,0.7-2.3,0.3-3.3c-0.1,0-0.1,0.1-0.2,0.1
			c-0.1,1.5-1.3,2.5-0.8,4.2c0.1,0.5,0.4,0.8,0.5,1.2c-0.2-0.1-0.4-0.1-0.6-0.1c-0.6-0.1-1.1-0.3-1.7-0.2c-1.2,0.5-2.8-0.1-3.7,0.9
			c-0.2,0-0.4,0.1-0.3,0.3c0.6,0,1.1,0.2,1.6,0.1c0.9,0.2,1.5-0.6,2.1-0.9h0.2c0.2-0.3,0.7-0.1,1-0.2c1.6,0.2,2.8,0.9,4.1,1.7v0.1
			c-0.5,0.2-1.1,0.4-1.6,0.7c-0.6,0.4-1.2,1-1.4,1.7c-0.4,0.6,0.1,1.2,0.4,1.7c0,0.3,0.1,0.6,0.3,0.7c0.8-0.9,0.1-1.9,0.2-2.9
			c0.2-0.8,0.9-1.1,1.6-1.3c1.4-0.6,2.5,0.6,3.6,1.2c0,1.2,0.1,2.3-0.1,3.4c-0.4,0.1-0.8,0.2-1.2,0.2c-2,0.2-3.6,1.2-5.4,1.9
			c-0.8,0.3-1.8,0.3-2.6,0.6c0.6,0.2,1.3-0.1,1.9-0.1c2.5-0.4,4.4-2.3,7-1.9l0.1,0.1c-0.3,0.6-0.7,1.2-1.2,1.7
			c-0.1-0.3-0.1-0.5-0.4-0.7c-0.2-0.1-0.4,0-0.6,0.2c-0.1,0.1-0.1,0.3,0,0.4c0.1,0.2,0.3,0.3,0.5,0.4c-0.1,0.2-0.3,0.3-0.5,0.5
			c-0.7,1.2-2.2,0.7-3,1.6c-0.1,0.2-0.6,0.3-0.4,0.6c1,0.1,1.9-0.2,2.6-0.7c0.9-1,1.9-2,2.9-3c0.2,0.8-0.1,1.7-0.6,2.3
			c-0.2-0.1-0.4-0.3-0.7-0.4c-0.3,0.1-0.4,0.3-0.5,0.5c0.1,0.2,0.2,0.4,0.4,0.5c-0.9,0.6-1.9,0.7-2.9,0.9c-1.8,0.2-3.6,0.4-5.5,0.4
			c-0.9-0.1-1.9,0.3-2.7,0c-1,0.2-2-0.1-2.8,0.4c-0.1,0.1,0,0.3,0,0.4c1.2,0.8,2.8,0.2,4.1,0.4h10c0.7,0,1.5-0.1,2.1-0.4
			c1.3-0.7,2-2.1,2.7-3.4c0.2-0.5,0.4-1,0.5-1.5c0.2-0.9,1-1.5,1.9-1.6c0.1,1.3-0.1,2.6-0.4,3.9c-0.2,0.8-0.7,1.6-0.4,2.5
			c0.1,0.4,0.5,0.4,0.8,0.5c3.1-0.1,6.1-0.2,9.3,0.1c0.6,0.1,1.1,0.3,1.7,0.3c0.1-0.1,0.2-0.1,0.2-0.3c-0.1-0.3-0.3-0.6-0.6-0.7
			c-0.1-0.2-0.3-0.1-0.4-0.2c-1.6-0.9-3.6-0.4-5.5-0.4c-1,0.1-2,0.3-2.8-0.3c-0.4-0.5-0.1-1.9-0.1-1.9c0-0.6,1.4-4.6,1.6-4.9
			c0.1-0.4,0.2-0.7,0.2-1.2c0.7-0.5,0.7-1.1,0.7-1.7c0.1-0.8,0.5-1.6,0.8-2.4c0.1-0.4,0.3-0.8,0.4-1.2c0.2-0.5,0.2-0.9,0.5-1.3
			c0.8,0.5,1.6,0.5,2,1.4l0.4,2.1c0,0.1,0.1,0.4,0.3,0.2c0.7-0.4,0.5-1.4,0.5-2.1c0.1-0.8-0.4-1.2-0.6-1.9c-0.2-0.1-0.5-0.7-0.5-0.7
			c-0.1-0.6-1.3-0.9-1-1.6c0.2-0.6,0.3-1.1,0.9-1.5c0.1,0.1,0.1,0.1,0.1,0.2h0.2v-2.1c0.8,0,2,0.1,2.9,0.1c0.2,0.1,0.4,0.3,0.7,0.3
			l0.2-0.3l2-0.4C38.2,14.9,37.6,13.9,36.8,13.9L36.8,13.9z"/>
		<path class="st0" d="M39,14.8c0.1,0,0.1,0,0.2,0H39L39,14.8z"/>
		<path class="st0" d="M17,21.9c0,0.3-0.2,0.5-0.4,0.6c-0.2-0.1-0.4-0.1-0.5-0.3c-0.1-0.3,0.2-0.5,0.4-0.6
			C16.7,21.7,17,21.7,17,21.9L17,21.9z"/>
		<path class="st0" d="M15.4,21.9c0.2,0.2,0.2,0.4,0.1,0.6c-0.2,0.2-0.5,0.3-0.6,0.1c-0.2-0.2-0.3-0.3-0.2-0.5
			C14.9,21.9,15.2,21.7,15.4,21.9L15.4,21.9z"/>
		<path class="st0" d="M50.6,22.2L50.6,22.2"/>
		<path class="st0" d="M69.8,22.6c0.1,0.3-0.1,0.5-0.3,0.6c-0.3-0.1-0.6-0.1-0.6-0.5c0-0.2,0.2-0.3,0.4-0.4
			C69.5,22.3,69.7,22.5,69.8,22.6L69.8,22.6z"/>
		<path class="st0" d="M71.2,22.6c0.1,0.1,0.2,0.3,0.1,0.5c-0.1,0.1-0.2,0.1-0.2,0.2c-0.3,0.1-0.5-0.1-0.6-0.3
			c-0.1-0.3,0.2-0.4,0.4-0.5C70.9,22.4,71,22.5,71.2,22.6L71.2,22.6z"/>
		<path class="st0" d="M9,22.9c-0.1,0.3-0.4,0.4-0.7,0.3c-0.1-0.1-0.2-0.2-0.2-0.3c0-0.2,0.1-0.4,0.3-0.4C8.7,22.5,9,22.6,9,22.9
			L9,22.9z"/>
		<path class="st0" d="M17.6,23.3c0,0.2-0.3,0.4-0.4,0.5c-0.3,0-0.4-0.2-0.6-0.4c0-0.2,0.1-0.5,0.3-0.5
			C17.2,22.8,17.5,23.1,17.6,23.3L17.6,23.3z"/>
		<path class="st0" d="M16.1,23.2c0.1,0.1,0.2,0.3,0.1,0.4c-0.2,0.1-0.4,0.4-0.6,0.2c-0.2-0.1-0.3-0.2-0.3-0.5
			c0.1-0.1,0.2-0.3,0.4-0.3C15.8,22.9,15.9,23.1,16.1,23.2L16.1,23.2z"/>
		<path class="st0" d="M75,23.5c0,0.2-0.2,0.4-0.3,0.5c-0.2,0.1-0.4,0-0.6-0.1C74,23.8,74,23.6,74,23.5c0.1-0.2,0.3-0.3,0.5-0.3
			C74.8,23.2,74.9,23.3,75,23.5L75,23.5z"/>
		<path class="st0" d="M76.7,23.7c-0.1,0.2-0.2,0.4-0.5,0.5c-0.2,0-0.4-0.1-0.4-0.3c0-0.2,0.1-0.4,0.2-0.4
			C76.3,23.3,76.6,23.4,76.7,23.7L76.7,23.7z"/>
		<path class="st0" d="M11.9,24c0.1,0.3-0.1,0.5-0.3,0.6c-0.2,0.1-0.4,0-0.5-0.1S10.9,24.2,11,24s0.3-0.2,0.4-0.3
			C11.7,23.8,11.8,23.9,11.9,24L11.9,24z"/>
		<path class="st0" d="M13.2,24.3c0.1,0.2-0.2,0.3-0.2,0.4c-0.1,0.1-0.3,0.2-0.5,0.1c-0.2-0.2-0.4-0.4-0.2-0.6
			C12.5,23.8,13,24,13.2,24.3L13.2,24.3z"/>
		<path class="st0" d="M73.5,24.2c0,0.2-0.2,0.4-0.4,0.6c-0.2,0.1-0.5-0.1-0.5-0.3c0-0.2,0.1-0.4,0.3-0.5
			C73.2,23.9,73.4,23.9,73.5,24.2L73.5,24.2z"/>
		<path class="st0" d="M75.6,24.6c-0.1,0.2,0,0.5-0.3,0.6c-0.2,0.1-0.5,0-0.6-0.1c-0.1-0.1-0.2-0.4-0.1-0.5c0.1-0.2,0.4-0.4,0.6-0.3
			C75.4,24.3,75.5,24.5,75.6,24.6L75.6,24.6z"/>
		<path class="st0" d="M11,25.1c0.1,0.2-0.1,0.3-0.2,0.4c-0.2,0.1-0.4,0-0.5-0.1c-0.2-0.1-0.1-0.4-0.1-0.5
			C10.4,24.5,10.9,24.8,11,25.1L11,25.1z"/>
		<path class="st0" d="M74,25.6c0.1,0,0.1,0.2,0,0.2c-0.6,0.3-1.5,0.4-2-0.1c-0.3-0.3-0.7-0.4-1-0.6c0.1-0.3,0.6-0.3,0.9-0.4
			C72.6,24.9,73.2,25.6,74,25.6L74,25.6z"/>
		<path class="st0" d="M12.2,25.3c0.1,0.2-0.1,0.3-0.2,0.4c-0.1,0.2-0.3,0.1-0.4,0.1c-0.2-0.2-0.3-0.4-0.2-0.6
			C11.7,24.9,12,25.1,12.2,25.3L12.2,25.3z"/>
		<path class="st0" d="M14.4,25.5c0.1,0.2-0.1,0.4-0.2,0.6C14,26.2,13.9,26,13.7,26c-0.1-0.2-0.4-0.4-0.1-0.6
			C13.8,25,14.2,25.2,14.4,25.5L14.4,25.5z"/>
		<path class="st0" d="M43.6,26.6c-0.1,0.5-0.9-0.1-0.8,0.6c0.1,0.5,0.2,1.1,0.5,1.4c0.2,0.3,0.1,0.9,0.1,1.3
			c-0.2,0.4-0.6,0.6-1,0.8c-0.7-0.1-1.8,0.4-2.1-0.5c-0.1-0.4-0.4-0.8-0.4-1.2c0.1-0.1,0.2-0.1,0.2-0.1c0-0.2-0.2-0.3-0.2-0.4
			c0.8-0.1-0.3-0.9,0.4-0.9c0.6,0.6,1.5,0.4,2,1.1c0.1,0.1,0.2,0.2,0.4,0.3c-0.1-0.6-0.4-1.2-0.5-1.9c-0.1-0.3,0.1-0.7,0.3-0.8
			C43,25.8,43.4,26.3,43.6,26.6L43.6,26.6z"/>
		<path class="st0" d="M16.6,26.4c0.1,0.3-0.1,0.4-0.3,0.5c-0.2,0.1-0.4-0.2-0.5-0.3c-0.1-0.3,0.1-0.4,0.3-0.5
			C16.3,26.2,16.5,26.2,16.6,26.4L16.6,26.4z"/>
		<path class="st0" d="M32.2,26.7c0.3,1,0.2,2-0.3,2.9c0,0.2,0.1,0.5-0.2,0.5c-0.7-0.9-0.2-2.3,0.1-3.3
			C31.8,26.5,32.2,26.4,32.2,26.7L32.2,26.7z"/>
		<path class="st0" d="M53.9,27.1c0.4,0.7,0.4,1.7,0.1,2.4l-0.2,0.2c-0.3-0.6-0.5-1.2-0.6-1.8c0.1-0.5,0.3-0.9,0.3-1.3
			C53.8,26.5,53.8,27,53.9,27.1L53.9,27.1z"/>
		<path class="st0" d="M18.6,27.4c-0.2,0.3-0.6,0.4-0.9,0.6c-0.6,0.5-1.5,0.6-2.2,0.4c0.7-0.9,1.7-1.5,2.9-1.2
			C18.4,27.4,18.6,27.3,18.6,27.4L18.6,27.4z"/>
		<path class="st0" d="M8.2,28.3c0.9,0.7,1.2,1.6,1.7,2.5c0.1,0.1,0.3,0.1,0.2,0.3c-0.2,0.2-0.4-0.2-0.7-0.1c-1-0.4-1.6-1.5-1.5-2.6
			C8,28.3,8.1,28.3,8.2,28.3L8.2,28.3z"/>
		<path class="st0" d="M52.9,29.1c0,0.3,0,0.5-0.2,0.6c-0.3,0.1-0.5-0.1-0.6-0.3c-0.1-0.2,0.1-0.3,0.1-0.4
			C52.4,28.8,52.7,28.9,52.9,29.1L52.9,29.1z"/>
		<path class="st0" d="M63.5,30.5c0-0.5,0.1-0.9,0.2-1.4c0.1-0.2,0.1-0.3,0.1-0.5c0.6-0.8,1.8-0.6,2.8-0.5c0.4,0.2,0.9,0.2,1.3,0.3
			c0.2-0.1,0.4-0.2,0.6-0.1c0.8-0.4,0.3-1.4,0.3-2.1l-0.3-0.8c-0.1-0.2-0.2-0.3-0.2-0.5c-0.1-0.2-0.2-0.5-0.4-0.7
			c-0.4-1.1-1.3-1.8-2-2.6c-1.3-1.7-3.3-2.6-5.3-3.3c-2-0.7-4,0.2-5.8,0.8c-0.5-0.2-0.8-0.6-1-1.1c-0.1-1,0.1-1.9,0.5-2.7
			c0.1-0.6,0.5-1.1,0.7-1.7c0.5-1.4,0.9-2.8,1-4.4c0.1-0.9-0.7-1.6-1.4-2c-0.5-0.1-1-0.1-1.4,0.3c-0.3,0.7-1,1.2-1.6,1.5
			c-0.1,0.4,0.5,0.2,0.7,0.3c0.6,0.1,1.2-0.1,1.6,0.3c0.1,1-0.5,1.9-1.1,2.6c-0.9,1.3-1.8,2.6-2.3,4l-0.1-0.1l0.1,6.2
			c0.8,1.3,1.8,2.9,3.3,3.4c0.8,0.7,1.8,1.5,2.9,0.9c0.6-0.2,0.6,0.6,0.9,1c0.3,0.9-0.4,1.6-0.4,2.5l-0.7,1.4
			c-0.8,1.5-1.4,3.1-2.6,4.3c-0.4,0-0.6,0.4-1,0.4c-0.2,0.3-0.6,0.1-0.9,0.2c-0.8,0.3-1.9,0.1-2.4,0.9c0.1,0.1,0.1,0.1,0.2,0.1
			c1.5,0,3.3,0.1,4.9,0.1c0.2-0.1,0.4-0.3,0.4-0.5c-0.2-0.4,0.1-0.8,0.3-1.1c0.1-0.6,0.5-1,0.7-1.6c0.5-1,1.1-2.1,1.7-3.1l0.8-1.3
			c0.2-0.4,0.5-1,0.8-1.4c0.2-0.2,0.3-0.4,0.5-0.7c0-0.3-0.1-0.4-0.2-0.5c0.2-0.2,0.5-0.1,0.7-0.2c0.6,0.4,1.3,1,1.4,1.7l0.2,0.7
			l0.1,0.3L62,30.6l0.1,0.8c0.1,1.2-0.1,2.5-0.2,3.7c-0.4,1.5-2.1,1.3-3.3,1.7c-0.3,0.2-0.9,0.1-0.9,0.6c1.5,0.3,3.2,0.1,4.7,0.1
			c0.2-0.1,0.3-0.3,0.4-0.6c0.1-0.3,0.4-0.6,0.3-1c-0.3-0.4,0-0.9-0.1-1.4c0.1-0.1,0.1-0.3,0-0.5c0.2-0.7,0.2-1.6,0.3-2.3L63.5,30.5
			L63.5,30.5z"/>
		<path class="st0" d="M76,29.5c-0.8,1.1-1.7,2.4-3.1,2.9c-0.1,0-0.2,0.1-0.2-0.1c0.9-0.9,1.3-2.3,2.7-2.7
			C75.5,29.5,75.8,29.4,76,29.5L76,29.5z"/>
		<path class="st0" d="M7,30.7c-0.1,0.1,0,0.3-0.2,0.4s-0.4,0-0.5-0.2c-0.1-0.3,0.1-0.5,0.3-0.6C6.7,30.4,6.9,30.5,7,30.7L7,30.7z"
			/>
		<path class="st0" d="M14.3,31.1c0.1,0.2-0.2,0.2-0.3,0.3c-1.1,0.4-2.1,0-2.9-0.7c0-0.1,0-0.2,0.1-0.2
			C12.2,30.7,13.4,30.5,14.3,31.1L14.3,31.1z"/>
		<path class="st0" d="M8.4,30.8c0.1,0.1,0.1,0.3,0.1,0.4c-0.2,0.2-0.4,0.3-0.6,0.2c-0.2-0.1-0.2-0.2-0.3-0.3c0-0.3,0.2-0.4,0.4-0.5
			C8.1,30.6,8.2,30.6,8.4,30.8L8.4,30.8z"/>
		<path class="st0" d="M32,30.9c0.1,0.2-0.2,0.4-0.3,0.5c-0.2,0.1-0.4-0.1-0.5-0.2c-0.1-0.2,0-0.4,0.2-0.5
			C31.6,30.6,32,30.7,32,30.9L32,30.9z"/>
		<path class="st0" d="M76.9,31c0.1,0.2-0.1,0.4-0.3,0.5c-0.2,0.1-0.3,0-0.5-0.1c0-0.1-0.2-0.2-0.1-0.4c0.1-0.2,0.3-0.3,0.6-0.3
			C76.7,30.8,76.8,30.9,76.9,31L76.9,31z"/>
		<path class="st0" d="M78.6,30.9c0.2,0.2,0,0.4-0.1,0.6s-0.3,0.2-0.5,0.2c-0.2-0.2-0.4-0.2-0.4-0.5c0-0.2,0.2-0.4,0.4-0.4
			C78.3,30.6,78.4,30.9,78.6,30.9L78.6,30.9z"/>
		<path class="st0" d="M5.9,31.6c0,0.2-0.1,0.3-0.2,0.4s-0.2,0.2-0.4,0.1C5.1,32,5,31.9,4.9,31.7c0.1-0.2,0.2-0.4,0.5-0.5
			C5.6,31.3,5.8,31.4,5.9,31.6L5.9,31.6z"/>
		<path class="st0" d="M59.1,31.6c0.1,0.1,0,0.2,0,0.3c-0.2,0.2-0.4,0.4-0.6,0.2c-0.2-0.2-0.3-0.3-0.2-0.5
			C58.5,31.4,58.9,31.3,59.1,31.6L59.1,31.6z"/>
		<path class="st0" d="M10,32c-0.1,0.2-0.1,0.4-0.4,0.4s-0.3-0.2-0.4-0.3c0-0.2,0-0.5,0.2-0.6C9.7,31.4,10,31.7,10,32L10,32z"/>
		<path class="st0" d="M7.6,32.1c0.1,0.3-0.1,0.4-0.2,0.6c-0.3,0.1-0.6-0.1-0.7-0.4c0-0.2,0.2-0.5,0.5-0.6
			C7.3,31.7,7.4,31.9,7.6,32.1L7.6,32.1z"/>
		<path class="st0" d="M60.8,32c0.1,0.2,0,0.5-0.3,0.6s-0.6-0.2-0.7-0.4c0.1-0.2,0.2-0.5,0.5-0.5C60.5,31.7,60.7,31.8,60.8,32
			L60.8,32z"/>
		<path class="st0" d="M8.7,32.1c0.1,0.2-0.1,0.3-0.1,0.4c-0.1,0-0.2,0.2-0.4,0.1c-0.1-0.1-0.3-0.2-0.3-0.4c0-0.3,0.2-0.4,0.3-0.5
			C8.5,31.7,8.7,31.9,8.7,32.1L8.7,32.1z"/>
		<path class="st0" d="M75.5,32.3c-0.1,0.2-0.2,0.3-0.4,0.4c-0.2,0.1-0.3-0.1-0.5-0.2c-0.1-0.1-0.1-0.3,0-0.5
			C74.8,31.6,75.5,31.8,75.5,32.3L75.5,32.3z"/>
		<path class="st0" d="M77.4,32.4c-0.1,0.3-0.4,0.4-0.6,0.4c-0.2-0.1-0.5-0.3-0.3-0.6c0.1-0.1,0.1-0.2,0.3-0.2
			C77.1,31.9,77.4,32.2,77.4,32.4L77.4,32.4z"/>
		<path class="st0" d="M65.5,32.6c0.1,0.3-0.2,0.4-0.4,0.6c-0.2,0-0.3-0.1-0.5-0.2c-0.1-0.3,0.1-0.5,0.4-0.7
			C65.2,32.3,65.3,32.4,65.5,32.6L65.5,32.6z"/>
		<path class="st0" d="M58.5,32.9c0.1,0.1,0.1,0.2,0.1,0.3c-0.2,0.1-0.4,0.4-0.6,0.2c-0.2-0.1-0.3-0.3-0.3-0.5
			C57.8,32.7,58.4,32.6,58.5,32.9L58.5,32.9z"/>
		<path class="st0" d="M59.9,33.1c0,0.2,0,0.3-0.2,0.4c-0.2,0.2-0.4,0-0.6-0.1c-0.1-0.1-0.1-0.3,0-0.4s0.2-0.2,0.3-0.2
			C59.6,32.9,59.8,32.9,59.9,33.1L59.9,33.1z"/>
		<path class="st0" d="M17,33.1c0.2,0.2,0,0.3-0.1,0.5s-0.4,0.3-0.6,0.1c-0.2-0.1-0.2-0.4-0.2-0.6c0.2-0.1,0.2-0.2,0.4-0.2
			C16.8,32.9,16.9,33,17,33.1L17,33.1z"/>
		<path class="st0" d="M68.2,33.2c0.1,0.3-0.2,0.4-0.4,0.4c-0.3,0.1-0.5-0.1-0.6-0.3c0-0.2,0.1-0.2,0.2-0.4
			C67.7,32.8,68,33,68.2,33.2L68.2,33.2z"/>
		<path class="st0" d="M66.8,33.2c0.1,0.3-0.2,0.4-0.3,0.5c-0.2,0.1-0.4,0.1-0.6-0.1c-0.1-0.1-0.1-0.2-0.1-0.4
			c0.2-0.1,0.2-0.3,0.4-0.3C66.5,32.9,66.7,33,66.8,33.2L66.8,33.2z"/>
		<path class="st0" d="M78.2,33.5c0.1,0.4-0.4,0.2-0.6,0.3c-1.1,0.6-2.4,0.2-3.4-0.2c0.1-0.3,0.5-0.2,0.7-0.3
			C75.9,32.5,77,33.4,78.2,33.5L78.2,33.5L78.2,33.5z"/>
		<path class="st0" d="M9,33.2l-0.1,0.2C8,34,6.8,34.3,5.6,34l-0.1-0.2C6.5,33.1,7.7,33,9,33.2L9,33.2L9,33.2z"/>
		<path class="st0" d="M70.7,33.4c0,0.2-0.1,0.4-0.2,0.5c-0.2,0.1-0.6,0-0.7-0.3c-0.1-0.2,0.1-0.4,0.3-0.5
			C70.3,33.1,70.6,33.1,70.7,33.4L70.7,33.4z"/>
		<path class="st0" d="M13.5,33.5c-0.1,0.2-0.1,0.4-0.3,0.5s-0.6-0.1-0.6-0.3c-0.1-0.3,0.1-0.4,0.2-0.5C13.2,33,13.4,33.3,13.5,33.5
			L13.5,33.5z"/>
		<path class="st0" d="M11.8,33.6c0.1,0.2-0.1,0.3-0.1,0.4c-0.1,0.2-0.4,0.1-0.5,0.1c-0.2-0.2-0.4-0.3-0.3-0.6
			c0.2-0.1,0.2-0.2,0.4-0.3C11.5,33.3,11.7,33.4,11.8,33.6L11.8,33.6z"/>
		<path class="st0" d="M72.5,34.2c0,0.2-0.2,0.4-0.4,0.5c-0.2,0-0.4-0.1-0.5-0.3c-0.1-0.2-0.1-0.4,0.1-0.5c0.1-0.1,0.2-0.1,0.3-0.1
			C72.3,33.8,72.5,34,72.5,34.2L72.5,34.2z"/>
		<path class="st0" d="M9.9,33.9c0.1,0.2-0.1,0.3-0.1,0.4c-0.1,0.4-0.4,0.7-0.5,1.1C8.8,36,8.1,36,7.5,36.2L7.4,36
			C8,35.1,8.8,34.3,9.9,33.9L9.9,33.9L9.9,33.9z"/>
		<path class="st0" d="M71.2,34.5c0.1,0.3-0.2,0.4-0.4,0.5c-0.2,0-0.4-0.1-0.5-0.3c-0.1-0.3,0.2-0.4,0.3-0.5
			C70.9,34.1,71.2,34.3,71.2,34.5L71.2,34.5z"/>
		<path class="st0" d="M12.8,34.5C12.8,34.6,12.8,34.6,12.8,34.5c0.1,0.4-0.1,0.5-0.3,0.6c-0.2,0-0.4-0.1-0.6-0.2
			c-0.1-0.2,0-0.5,0.2-0.6C12.4,34.2,12.7,34.2,12.8,34.5L12.8,34.5z"/>
		<path class="st0" d="M75.9,35.2c0.2,0,0.3-0.3,0.6-0.4c0.2-0.1,0.5,0.1,0.6,0.3c0.1,0.3-0.1,0.5-0.3,0.6s-0.6-0.2-0.5,0.2
			c0.2,0.1,0.3,0.3,0.4,0.5c-0.1,0.1-0.2,0.1-0.3,0c-0.7-0.3-1.5-0.8-1.8-1.6c-0.1-0.2-0.6-0.4-0.3-0.6
			C74.9,34.2,75.5,34.8,75.9,35.2L75.9,35.2z"/>
		<path class="st0" d="M78.3,34.5c0.1,0.1,0.1,0.4,0,0.5c-0.1,0.3-0.5,0.2-0.7,0.1c-0.1-0.1-0.2-0.3-0.2-0.5
			c0.1-0.2,0.2-0.2,0.4-0.3C78,34.2,78.1,34.3,78.3,34.5L78.3,34.5z"/>
		<path class="st0" d="M69.1,35.8c0.2,0.3,0.5,0.7,0.6,1c-0.1,0.1-0.2,0.1-0.2,0.1c-0.9-0.5-2-1-2.3-2c-0.1-0.1-0.3-0.2-0.2-0.4
			c0.7-0.1,1.3,0.4,1.7,0.7C68.8,35.4,69,35.6,69.1,35.8L69.1,35.8z"/>
		<path class="st0" d="M11.4,34.9c0.1,0.2-0.1,0.4-0.2,0.5c-0.3,0.1-0.4-0.1-0.6-0.2c-0.2-0.3,0.2-0.5,0.4-0.6
			C11.1,34.5,11.2,34.7,11.4,34.9L11.4,34.9z"/>
		<path class="st0" d="M72.3,35.5c0,0.2-0.2,0.3-0.2,0.4c-0.2,0-0.4,0.1-0.6-0.1c-0.1-0.1-0.2-0.3,0-0.5
			C71.7,34.9,72.1,35.2,72.3,35.5L72.3,35.5z"/>
		<path class="st0" d="M78.6,35.8c0.1,0.3-0.2,0.5-0.4,0.6c-0.2,0.1-0.5-0.1-0.6-0.2c-0.1-0.2,0-0.3,0-0.5c0.2-0.2,0.4-0.3,0.7-0.2
			C78.4,35.6,78.5,35.7,78.6,35.8L78.6,35.8z"/>
		<path class="st0" d="M61.1,39.3c0,0.3-0.6,0.2-0.8,0.5c-0.8,0.4-1.7,0.4-2.7,0.4V40C58.6,39.2,59.9,39,61.1,39.3L61.1,39.3z"/>
		<path class="st0" d="M24.2,40.4c0,0.2-0.2,0.4-0.4,0.4c-0.2,0-0.4-0.1-0.4-0.2c-0.1-0.3,0.2-0.4,0.3-0.6
			C24,40.1,24.2,40.2,24.2,40.4L24.2,40.4z"/>
		<path class="st0" d="M60.7,40.7c-0.1,0.2-0.1,0.5-0.4,0.6c-0.2,0.1-0.4-0.1-0.6-0.2c-0.1-0.1-0.1-0.3-0.1-0.4
			C59.8,40.2,60.5,40.2,60.7,40.7L60.7,40.7z"/>
		<path class="st0" d="M65.7,40.8c-0.6,0.4-1.3,0.9-2.2,0.9h-1.4L62,41.6C62.8,40.6,64.4,40.6,65.7,40.8L65.7,40.8L65.7,40.8z"/>
		<path class="st0" d="M17.3,41.4c0,0.2-0.1,0.4-0.3,0.5c-0.2,0.1-0.4-0.1-0.5-0.2c-0.1-0.2,0-0.5,0.2-0.6
			C16.9,40.9,17.2,41.2,17.3,41.4L17.3,41.4z"/>
		<path class="st0" d="M18.6,41.7c0.1,0.1-0.1,0.2-0.1,0.3c-0.1,0.1-0.4,0.1-0.5,0c-0.2-0.1-0.2-0.3-0.2-0.4
			c0.1-0.2,0.2-0.1,0.3-0.2C18.3,41.4,18.5,41.5,18.6,41.7L18.6,41.7z"/>
		<path class="st0" d="M8.9,44.2C8.7,44.5,8.2,44.1,8,44c-0.9-0.5-0.9-1.5-1.7-2.1c0.1-0.3,0.3,0,0.5,0C7,42,7.2,42.1,7.3,42.2
			C8.1,42.7,8.3,43.5,8.9,44.2L8.9,44.2z"/>
		<path class="st0" d="M82.6,34.4c-0.4-0.7-1.1-1-1.9-1c-0.7,0.1-1.1,0.5-1.4,1c-0.2,0.6,0.1,1.1,0.5,1.4c0.2,0.1,0.4,0.1,0.5-0.1
			c0.1-0.3-0.2-0.3-0.3-0.6c-0.1-0.4,0-0.7,0.3-0.9c0.2-0.3,0.7-0.1,1-0.1c0.3,0.2,0.6,0.4,0.8,0.7c0.2,0.4,0.2,0.9,0,1.3
			c-0.3,0.6-0.9,1.1-1.6,1.3c-2.1,0.3-25.1,0.2-25.1,0.2c-2.7,0.3-5.8-0.5-8.1,0.9c-1.1,0.5-1.6,1.7-1.9,2.7c-0.7,0.6-1.4,1.3-2,2
			l-0.1-0.1c0.1-0.6,0.4-1.2,0.5-1.8c0.4-0.5,0.4-1.2,0.7-1.8c1-1.6,1.9-3.1,3.4-4.2c0.6-0.8,1.7-0.7,2.7-0.7c1,0.5,2.2,0.6,3.5,0.5
			c0.1-0.1,0.1-0.1,0.1-0.2c-0.4-0.3-0.9-0.5-1.3-0.8c-1-0.5-2,0.2-3,0.1c-0.1-0.1-0.1-0.1-0.1-0.2c1-0.7,2.1-1.2,3.1-1.7
			c0.9-0.5,1.8-0.7,2.8-1.1c0.4,0,0.7-0.3,1.1-0.1l1.3-0.4c0.1,0,0.1,0.1,0.2,0.1c1.1-0.4,2.6,0,3.9-0.1l0.2,0.2l1.2,0.3
			c0.5,0.1,0.7,0.6,1.1,0.6c0.2-0.4-0.3-0.5-0.4-0.7c0.6-0.1,1.2,0,1.7,0.3l-0.2,0.3c-0.1,0.3,0.1,0.5,0.3,0.6
			c0.2,0.1,0.3-0.1,0.4-0.1c0.3-0.2,0-0.5,0.1-0.7c1.9,0.3,3.7,0.8,5.4,1.5c0.5,0.2,0.9,0.5,1.5,0.5c-0.5-0.5-1.3-0.7-1.9-1
			c-0.4-0.3-1-0.3-1.4-0.6c0.1-0.1,0.2-0.1,0.3-0.2c0.9-0.1,1.6-0.7,2.2-1.4c0.1-0.2,0.3-0.1,0.3-0.3c-0.2-0.3-0.6,0.1-0.9,0.1
			c-1.1,0.2-1.5,1.5-2.6,1.7c-1.3-0.3-2.6-0.6-3.9-0.9c-0.6-0.1-1.3-0.2-1.9-0.4l-1.4-0.1h-2.6c0-0.1-0.1-0.1-0.1-0.2
			c0.9-0.2,1.7-0.8,2.6-1l6.8-3.1c0.7-0.6,1.3-1.3,1.9-2.1c0-0.2-0.1-0.4-0.3-0.5s-0.4-0.1-0.5,0.1c-0.3,0.2,0,0.5,0,0.8
			c-0.3,0.4-0.8,0.8-1.2,1c-0.1,0-7,3.1-7,3.1c-1,0.4-2,0.9-3.1,1.1l-1.5,0.2c-0.1,0.3-0.4,0.5-0.6,0.6c-0.4,0.1-0.7,0.3-1.2,0.3
			c-3.3,1.3-6.7,2.6-9.3,5.2c0.2-0.3,0.2-0.7,0.2-1.1c-0.1-0.4,0-0.8-0.3-1.1c-0.1-0.1-0.2-0.5-0.2-0.7l-0.4,0.2
			c-0.2,0.6-0.4,1.6-0.2,2.2c0.1,0.5,0.5,1,0.1,1.4c-1.2,1.5-1.9,3.3-2.7,4.9c-0.3-0.1-0.5-0.3-0.6-0.6c0.9-1.1,1.5-2.3,1.8-3.7
			c0.2-0.1,0.1-0.5,0.2-0.6c-0.1-0.4,0.2-0.8,0-1.2c0.2-0.5-0.7-1.1-0.2-1.4l-0.5,0.2c-1.1,1.4,0.6,3.6-0.7,4.9v0.1
			c-0.4,0.5-0.5,0.9-1,1.2c-0.6-0.2-0.8-0.9-1.2-1.5c-0.6-0.5-0.6-1.6-0.2-2.4c0.2-0.7-0.2-1.4-0.2-2l-0.2-0.2c-0.6,0.8-0.8,2-0.4,3
			c0.2,0.5,0.3,1.1,0.7,1.5c0.2,0.7,0.7,1.2,1.1,1.9c0.1,0.3-0.2,0.3-0.3,0.4c-0.3-0.2-0.2-0.6-0.5-0.8c-0.8-1.8-1.9-3.2-3.2-4.7
			c-0.1-0.2-0.3-0.4-0.2-0.7c0.5-0.5,0.6-1.3,0.3-1.9c-0.1-0.1-0.2-0.3-0.2-0.4l-0.4-0.3c0.1,0.9-0.5,1.7-0.3,2.6v0.1
			c-2.6-2-5.5-3.7-8.4-5.1l-0.2,0.6c0.7,0.2,2.7,1.4,2.7,1.4c0.9,0.3,1.7,0.9,2.5,1.3c3.4,1.9,5.7,5.1,7.3,8.6
			c0,0.3,0.3,0.6,0.1,0.9c-0.5-0.8-1.3-1.3-1.9-1.9c-0.2-1.2-0.9-2.3-1.9-2.8c-0.4-0.6-1.2-0.6-1.8-0.8l-9.2-0.1
			c-7.5-0.1-14.3,0.2-21.7,0.1c-1-0.1-2.3-0.5-2.6-1.6c-0.2-0.4-0.2-1,0-1.4c0.3-0.5,0.8-0.6,1.3-0.7c0.4,0.1,0.7,0.4,0.9,0.7
			c0,0.3-0.3,0.6-0.4,0.9c0,0.1,0.1,0.3,0.3,0.2c0.3-0.1,0.6-0.5,0.7-0.8c0-0.2,0.1-0.4-0.1-0.6c-0.2-0.5-0.7-0.9-1.2-1
			c-0.6-0.1-1.3,0.1-1.7,0.6c-0.6,0.5-0.6,1.4-0.4,2.1c0.4,1.1,1.6,1.9,2.7,2.1L28.1,38c2.4,0.1,5.1-0.3,7.5,0.2
			c0.9,0.3,1.8,0.9,2.1,1.9c0,0.1-0.1,0-0.2,0c-2-1.3-4.6-1.8-7.2-1.5c-1-0.1-1.9,0.3-2.8,0.6c-0.5,0.1-0.9-0.1-1.2-0.4
			c-0.9-0.8-2.5-0.8-3.7-0.5c0,0.1,0,0.2,0,0.2c1.2-0.1,2,1,3.1,1.1c0.2,0.1,0.5-0.2,0.7,0c-1.2,0.6-2.3,1.2-3.5,1.6
			c-0.4-0.1-0.6-0.4-0.9-0.6c-0.5-0.5-1.4-0.3-2-0.4c-0.2,0.1-0.4-0.1-0.6,0c0.2,0.4,0.7,0.6,1.1,0.8c0.6,0.3,1.4,0,1.9,0.4
			c-0.2,0.2-0.4,0.2-0.5,0.4c-1.2,0.5-2.2,1.5-3.5,1.5c-1.4,0.2-2.8-0.3-3.7-1.2c-0.4-1-1.4-1.5-2.5-1.5c-0.1,0.1-0.2,0.1-0.2,0.2
			c0.6,0.3,1,1,1.5,1.4c0.4,0.4,1,0,1.4,0.5c0.5,0.3,1.1,0.6,1.6,0.7c0.4,0.2,0.9,0.3,1.3,0.4l-0.2,0.1c-2.3,0.8-5,0.8-7.5,0.7
			c-0.8,0-1.5-0.2-2.2-0.2c0.1,0.2,0.4,0.3,0.6,0.4C8.3,44.9,8.1,45,7.8,45c-0.3,0.1-0.7,0.1-1,0.3c-0.4,0-0.8,0.1-1.1,0.2
			c-0.4,0.5-0.9,0.9-1.4,1.2c0,0.1,0,0.3,0.1,0.3c0.5-0.2,1.1-0.1,1.6-0.3c0.8-0.1,1.3-1,2-1.4c0.7-0.6,1.7-0.4,2.6-0.3
			c0.5,0.1-0.1,0.3,0.1,0.7c0.2,0.2,0.4,0.4,0.7,0.3c0.1-0.1,0.1-0.1,0.2-0.1c0.2-0.2,0.1-0.4,0-0.6c0.4-0.2,0.8,0,1.2-0.1
			c1,0,1.9-0.2,2.9-0.3c0.2,0,0.3-0.2,0.5,0c-0.1,0.2-0.3,0.2-0.2,0.5c0.1,0.2,0.3,0.3,0.5,0.4c0.2-0.1,0.5-0.3,0.4-0.6
			c-0.1-0.2-0.2-0.2-0.4-0.3c0.5-0.3,1.1-0.3,1.7-0.6c0.4-0.1,0.7-0.2,1.1-0.4c0.3,0,0.6-0.3,0.9-0.2c-0.1,0.4-0.3,0.8-0.5,1.2
			c-0.4,1.3-0.7,3.1,0,4.4c0.1,0,0.1,0,0.2-0.1c-0.5-1.3-0.2-2.9,0.2-4.2c0.4-2.2,2.6-2.8,4.2-3.6l0.1,0.1c-0.4,1.1-1.1,2.2-1,3.5
			c0.1,0.2-0.1,0.5,0,0.6c0.4-0.2,0.7-0.7,0.9-1.2c0.2-1.1-0.5-2.6,0.7-3.4c2.1-0.8,4-1.9,6.4-1.9c0.1,0.1,0.2-0.1,0.3,0.1
			c-0.5,0.6-1.2,1.1-1.5,1.8c-0.8,1.1-0.8,3-0.4,4.4c0.2,0.8-0.5,1.2-0.8,1.8c-0.2,0.2-0.2,0.6-0.3,0.8l0.5,0.1
			c0.4-0.5,0.8-1,0.9-1.7c0.1,0.3,0.3,0.5,0.5,0.5c0.2-0.3-0.2-0.5-0.2-0.8c0.4-0.2,0.6,0.3,0.9,0.4c0.5,0.1,1,0.4,1.5,0.4l0.2-0.2
			c-0.6-0.9-1.7-1-2.6-1.1c-0.5-0.8-0.5-1.9-0.5-2.9c0.1-0.5,0.2-1.1,0.5-1.6c0.1-0.4,0.5-0.7,0.7-1c0.5-0.4,1-0.7,1.6-0.9h0.1
			c0,0.1,0,0.1,0,0.1c-0.7,0.5-0.8,1.3-1.2,1.9c-0.4,0.6-0.6,1.5-0.2,2.2c0.2,0.3,0.1,0.8,0.4,1.1c0.3-0.5,0.4-1,0.5-1.6
			c-0.1-0.8-0.6-1.6-0.1-2.4c0.2-0.6,0.8-0.9,1.4-1.1c1.4-0.1,2.6,0.6,3.8,1.1c0.2,0.2,0.7,0.3,0.7,0.7c0,0.7-0.4,1.4-0.9,1.7
			c-0.7,0.4-1.7,0.5-2.3,0c-0.4-0.4-0.5-1-0.4-1.6c0.3-0.3,0.7-0.6,1.1-0.4c0.3,0.1,0.5,0.4,0.8,0.2c0.1-0.1,0.2-0.3,0.1-0.4
			c-0.3-0.2-0.4-0.5-0.8-0.6c-0.5-0.1-1.1-0.1-1.4,0.3c-0.5,0.5-0.7,1.2-0.6,1.8c0.2,0.8,0.8,1.4,1.6,1.6c1.2,0.3,2.4-0.1,3.1-1.1
			c0.3-0.3,0.4-0.7,0.6-1.1c1.2,0.7,2.1,2,2.6,3.4c0,0.4,0.1,0.9,0,1.3l0.9,0.1c-0.1-0.2,0-0.4,0.1-0.6c0.3-1.7,1.4-3.1,2.6-4.2
			c0.4-0.3,0.3,0.3,0.4,0.5c0.4,1,1.3,1.7,2.2,1.9c1.1,0.2,2.1-0.1,2.7-0.9c0.3-0.6,0.7-1.5,0.2-2.1c-0.4-0.4-0.8-0.7-1.4-0.7
			c-0.7,0-1.1,0.5-1.4,0.9c0,0.2,0,0.4,0.2,0.5c0.1,0,0.3,0,0.4-0.1c0.1-0.4,0.4-0.6,0.7-0.8c0.3-0.2,0.6,0,0.8,0.2
			c0.3,0.2,0.3,0.6,0.4,1c-0.1,0.5-0.4,1-0.8,1.2c-0.7,0.4-1.8,0.2-2.4-0.2c-0.3-0.3-0.5-0.7-0.7-1.1c-0.1-0.4-0.2-0.8,0-1.2
			c1.1-0.7,2.3-1.1,3.6-1.3c0.5,0.1,1,0.5,1.3,0.8c1.2,1.2-0.2,2.9,0.6,4.2c0.3-0.1,0.3-0.5,0.4-0.7c0.4-0.9-0.1-1.9-0.3-2.8
			c-0.3-0.6-0.5-1-1-1.5c0.1-0.1,0.2-0.1,0.3-0.1c0.5,0.4,1.1,0.8,1.5,1.3c0.7,1.2,1.1,2.6,1,4.2c-0.2,0.8-1,1.1-1.6,1.4
			c-0.2,0.2-0.6,0.5-0.7,0.8c0.3,0.2,0.7,0,1-0.1c0.5-0.2,0.8-0.8,1.1-1.1c0.1,0,0,0.1,0.1,0.2c0,0.3-0.1,0.7,0.1,0.7
			c0.1-0.4,0.2-0.9,0.2-1.3c0.3,0.4,0.4,0.8,0.5,1.3c0.2,0.5,0.6,1.1,1.2,1.1c0.2-0.2,0-0.5-0.1-0.7c-0.1-0.6-0.6-1-1-1.4
			c-0.9-1.2-0.5-3.1-1.2-4.5c-0.2-0.7-0.8-1.3-1.4-1.9l0.1-0.1c1.2,0,2.3,0.4,3.4,0.6c1.4,0.7,3.4,0.5,4.1,2.3c0.3,1,0.7,2,1.4,2.7
			l0.1-0.1c0.2-0.2,0.2-0.7,0-0.9c-0.2-1.3-1.3-1.6-1.8-2.6l0.1-0.1c0.6,0.2,1.2,0.3,1.8,0.6c2,0.6,3.4,2.5,3.7,4.6
			c0,1.6-0.3,3-0.9,4.4c-0.1,0.2-0.4,0.4-0.2,0.6c0.3-0.2,0.3-0.5,0.5-0.8c0.8-1.4,1.3-3.3,0.8-5.1c0-0.3-0.4-0.6-0.2-0.9
			c0.1,0.2,0.3,0.2,0.4,0.2c0.2-0.1,0.4-0.1,0.5-0.3c0-0.2,0.1-0.3,0-0.5c-0.2-0.2-0.5-0.2-0.7-0.2c-0.1,0.2-0.3,0.4-0.3,0.6
			c-0.2-0.4-0.5-1-0.9-1.3l0.1-0.1c1.1,0.4,2.2,0.9,3.3,1.2c0.2,0.2,0.5,0.3,0.9,0.3c1,0.4,2.1,0.5,3.1,0.8c0.8-0.1,1.4,0.3,2.1,0.1
			v-0.1l0,0c-0.3-0.4-0.9,0-1.2-0.3c-1.7-0.2-3.4-0.6-5-1.2c0-0.1,0.1-0.1,0.2-0.1c0.2-0.1,0.4-0.4,0.4-0.6
			c-0.1-0.2-0.3-0.3-0.6-0.3c-0.2,0.1-0.4,0.2-0.4,0.4c0,0.2,0.2,0.4,0.4,0.5c-0.1,0.1-0.2,0-0.2,0c-0.8-0.4-1.5-0.7-2.3-1
			c-0.3-0.1-0.5-0.3-0.8-0.3c-0.6-0.3-1.2-0.6-1.7-0.8c-1.6-0.8-3.4-1.3-5.1-1.9c-0.4-0.1-0.7-0.2-1.1-0.3c-0.6-0.2-1.3-0.3-1.9-0.5
			c-2.1-0.5-5-0.6-6.9,0.6c-0.3-0.1-0.5,0.4-0.6,0.1c0.5-1.4,2.1-1.9,3.5-1.9c10.1-0.1,19.6-0.2,29.6-0.3c1.2,0,2.3-0.4,2.9-1.5
			C82.8,36.1,82.9,35,82.6,34.4L82.6,34.4z M42.4,43.7c-0.1,0.3-0.3,0.6-0.3,0.9L42,44.7c0.1-0.4-0.3-0.6-0.2-1
			c-0.2-0.3-0.2-0.7-0.4-1c-0.2-0.4,0.2-0.6,0.4-0.9c0.4,0.2,0.5,0.5,0.7,0.8C42.7,43,42.4,43.3,42.4,43.7L42.4,43.7z"/>
		<path class="st0" d="M69.8,42.1c0,0.1,0.2,0.1,0.1,0.2c-0.9,0.8-2.1,1-3.4,1.1c-0.1,0-0.2,0.1-0.3,0.1c-0.1-0.1-0.1-0.1-0.1-0.2
			C67,42.3,68.4,41.8,69.8,42.1L69.8,42.1z"/>
		<path class="st0" d="M65.7,42.6c0.1,0.4-0.1,0.6-0.4,0.7c-0.3,0-0.4-0.2-0.6-0.4c-0.1-0.2,0.1-0.3,0.2-0.4
			C65.1,42.2,65.6,42.2,65.7,42.6L65.7,42.6z"/>
		<path class="st0" d="M17.7,42.6c0.1,0.2,0,0.4-0.1,0.5s-0.3,0.2-0.5,0.1c-0.2,0-0.3-0.2-0.3-0.4c0-0.2,0.1-0.4,0.3-0.5
			C17.3,42.4,17.5,42.4,17.7,42.6L17.7,42.6z"/>
		<path class="st0" d="M13.2,44.3v0.2c-0.6,0.1-1.2,0-1.6-0.4c-0.4-0.5-0.8-1-1.3-1.3c0-0.1-0.2-0.2,0-0.2
			C11.5,42.6,12.2,43.6,13.2,44.3L13.2,44.3z"/>
		<path class="st0" d="M73.6,42.6c-0.6,0.9-1.1,1.9-2.1,2.3c-0.2,0-0.3,0.3-0.5,0.1c0.4-1,1.3-2,2.2-2.4
			C73.4,42.6,73.5,42.5,73.6,42.6L73.6,42.6z"/>
		<path class="st0" d="M19.2,42.9c0,0.3-0.2,0.3-0.4,0.5c-0.2,0-0.3-0.1-0.4-0.3c-0.1-0.3,0.1-0.4,0.3-0.5
			C18.8,42.6,19.1,42.7,19.2,42.9L19.2,42.9z"/>
		<path class="st0" d="M76.8,43c-0.2,0.3-0.1,0.8-0.4,1.2c-0.5,0.6-0.9,1.2-1.7,1.4c-0.1-0.2,0.2-0.5,0.3-0.7
			C75.4,44.1,75.9,43.3,76.8,43L76.8,43L76.8,43z"/>
		<path class="st0" d="M5.3,43.3c0.1,0.2,0.2,0.4,0,0.6C5.2,44,4.9,44.1,4.7,44s-0.3-0.4-0.2-0.6C4.7,43.1,5.2,43,5.3,43.3L5.3,43.3
			z"/>
		<path class="st0" d="M3.9,43.6C3.9,43.7,4,43.8,4,44c-0.1,0.1-0.2,0.3-0.4,0.3C3.3,44.4,3.1,44.2,3,44c0-0.2,0.1-0.4,0.2-0.5
			C3.5,43.3,3.8,43.4,3.9,43.6L3.9,43.6z"/>
		<path class="st0" d="M6.9,43.7C7,43.9,7,44.3,6.7,44.3c-0.4,0.2-0.6-0.1-0.8-0.3c0-0.2,0.1-0.4,0.3-0.5
			C6.5,43.5,6.7,43.5,6.9,43.7L6.9,43.7z"/>
		<path class="st0" d="M11,44.1c0,0.2,0,0.4-0.2,0.5c-0.1,0.1-0.4,0.1-0.5,0.1c-0.1-0.2-0.3-0.3-0.2-0.5c0.1-0.1,0.2-0.2,0.4-0.3
			C10.7,43.9,10.9,43.8,11,44.1L11,44.1z"/>
		<path class="st0" d="M79.3,44.2c-0.1,0.2-0.2,0.4-0.4,0.4s-0.5-0.1-0.6-0.3c-0.1-0.3,0.1-0.4,0.3-0.5C78.9,43.8,79.2,44,79.3,44.2
			L79.3,44.2z"/>
		<path class="st0" d="M74.6,44.4c0,0.2-0.2,0.4-0.3,0.4c-0.4,0.2-0.7-0.1-0.8-0.4c0.1-0.2,0.2-0.4,0.4-0.5
			C74.3,43.9,74.5,44.1,74.6,44.4L74.6,44.4z"/>
		<path class="st0" d="M77.8,44.3c0,0.2-0.1,0.4-0.2,0.4c-0.2,0.1-0.5,0.1-0.6-0.1c-0.2-0.2-0.1-0.4,0.1-0.5
			C77.3,44,77.7,44,77.8,44.3L77.8,44.3z"/>
		<path class="st0" d="M4.7,44.7c0.1,0.3-0.1,0.5-0.3,0.6c-0.2,0-0.5-0.1-0.6-0.4c0-0.2,0.1-0.5,0.2-0.5C4.3,44.4,4.5,44.6,4.7,44.7
			L4.7,44.7z"/>
		<path class="st0" d="M73.4,45c0.1,0.3-0.1,0.5-0.4,0.7c-0.2,0.1-0.3-0.1-0.5-0.2c-0.1-0.1-0.2-0.4,0-0.5
			C72.7,44.6,73.2,44.7,73.4,45L73.4,45z"/>
		<path class="st0" d="M18.3,45.3c0.1,0.3-0.2,0.3-0.3,0.5c-0.1,0.1-0.3,0.1-0.4,0c-0.1-0.2-0.3-0.3-0.2-0.5
			c0.1-0.1,0.2-0.2,0.3-0.2C18,44.9,18.1,45.1,18.3,45.3L18.3,45.3z"/>
		<path class="st0" d="M78.8,45.5c0.1,0.2-0.1,0.3-0.1,0.4c-0.2,0.1-0.4,0.2-0.6,0.1c-0.2-0.1-0.2-0.3-0.2-0.6
			c0.1-0.1,0.2-0.2,0.4-0.3C78.4,45.1,78.7,45.2,78.8,45.5L78.8,45.5z"/>
		<path class="st0" d="M77.2,45.6c0.1,0.3-0.2,0.5-0.4,0.5c-0.1,0-0.2-0.1-0.3,0.1c0.7,0.3,1.1,0.9,1.6,1.3v0.2
			c-0.9,0-1.8-0.2-2.5-1c-0.2-0.1-0.5-0.1-0.7-0.3c0.3-0.3,0.9-0.2,1.4-0.2c0.3-0.4-0.4-0.6,0.1-0.9c0.2,0,0.2-0.2,0.5-0.1
			C77,45.3,77.1,45.4,77.2,45.6L77.2,45.6z"/>
		<path class="st0" d="M66.9,45.6c0.1,0.1-0.1,0.3-0.1,0.4c-0.2,0.2-0.4,0.2-0.6,0.1c-0.1-0.2-0.3-0.3-0.2-0.6
			C66.2,45.1,66.8,45.2,66.9,45.6L66.9,45.6z"/>
		<path class="st0" d="M10.4,46.5c-0.1,0.2-0.2,0.4-0.4,0.4c-0.2,0-0.4-0.1-0.5-0.3c0-0.2,0.1-0.3,0.1-0.4
			C9.9,45.9,10.4,46.1,10.4,46.5L10.4,46.5z"/>
		<path class="st0" d="M12.4,46.1c0,0.4-0.4,0.6-0.5,0.9c-0.4,0.8-1.1,1.6-2,1.7c-0.1-0.2,0.3-0.5,0.4-0.7c0.4-0.9,1.2-1.3,1.9-1.9
			H12.4L12.4,46.1z"/>
		<path class="st0" d="M66.3,46.5c0,0.3-0.2,0.5-0.4,0.6c-0.2,0.1-0.4-0.1-0.5-0.2c-0.2-0.2-0.1-0.4,0-0.6
			C65.7,46,66.1,46.2,66.3,46.5L66.3,46.5z"/>
		<path class="st0" d="M67.9,46.7c0,0.3-0.2,0.5-0.5,0.6c-0.1-0.1-0.2,0-0.2-0.1c-0.2-0.1-0.3-0.3-0.3-0.5c0.1-0.1,0.2-0.3,0.4-0.4
			C67.4,46.3,67.8,46.4,67.9,46.7L67.9,46.7z"/>
		<path class="st0" d="M16.4,46.6c0,0.3-0.2,0.4-0.4,0.5c-0.2,0-0.4-0.1-0.5-0.3c-0.1-0.2,0.2-0.4,0.3-0.5
			C16.1,46.3,16.2,46.5,16.4,46.6L16.4,46.6z"/>
		<path class="st0" d="M18.1,46.7c-0.1,0.2-0.2,0.4-0.5,0.4c-0.2-0.1-0.4-0.1-0.5-0.3c0-0.3,0.2-0.4,0.4-0.5
			C17.8,46.4,18,46.5,18.1,46.7L18.1,46.7z"/>
		<path class="st0" d="M73.3,48.5c0.1,0.1,0.4,0.2,0.3,0.4c-0.4,0.2-0.7-0.3-1.1-0.4c-0.6-0.6-1.1-1.3-1.3-2
			c0.2-0.2,0.5,0.1,0.7,0.1C72.4,47.2,73,47.8,73.3,48.5L73.3,48.5z"/>
		<path class="st0" d="M74.2,46.7c0.1,0.2,0.1,0.4-0.1,0.6c-0.2,0.3-0.5,0.2-0.7,0.2c-0.1-0.2-0.4-0.4-0.2-0.6
			c0.1-0.2,0.3-0.3,0.5-0.3C73.9,46.5,74,46.7,74.2,46.7L74.2,46.7z"/>
		<path class="st0" d="M20.4,47.4c0,0.2,0.1,0.5-0.2,0.6c-0.2,0.1-0.5,0-0.6-0.3s0.1-0.4,0.3-0.5C20.1,47.2,20.3,47.3,20.4,47.4
			L20.4,47.4z"/>
		<path class="st0" d="M67.8,49.1c0.4,0.5,0.6,1.1,0.7,1.8c-0.1,0.2,0.1,0.4,0,0.5h-0.2c-1.1-0.8-1.4-2-1.8-3.1
			c-0.1-0.1-0.1-0.2-0.1-0.3c0.2-0.2,0.4,0.2,0.7,0.3L67.8,49.1L67.8,49.1z"/>
		<path class="st0" d="M23.7,48.2C23.7,48.2,23.7,48.3,23.7,48.2c-1,0.8-2.4,1.2-3.6,0.5c0-0.1,0-0.2,0.1-0.2
			c0.7-0.2,1.4-0.6,2.2-0.5L23.7,48.2L23.7,48.2z"/>
		<path class="st0" d="M17.9,48.3c-0.9,0.5-1.6,1.6-2.7,1.8c-0.2,0.1-0.3,0.4-0.6,0.2c0.5-1.4,1.9-2.1,3.3-2.2L17.9,48.3L17.9,48.3z
			"/>
		<path class="st0" d="M66.3,49.5c0.1,0.2,0,0.5-0.2,0.5c-0.1,0.1-0.4,0.1-0.5,0c-0.2-0.1-0.2-0.3-0.2-0.5c0.1-0.2,0.2-0.2,0.4-0.3
			C66,49.3,66.2,49.3,66.3,49.5L66.3,49.5z"/>
		<path class="st0" d="M64.2,49.6c-0.2,0.4-0.6,0.6-0.9,0.7c-0.9,0.3-1.6-0.1-2.4-0.3c0-0.2,0.3-0.1,0.4-0.2
			c0.8-0.2,1.7-0.4,2.6-0.1C63.9,49.5,64.1,49.5,64.2,49.6L64.2,49.6z"/>
		<path class="st0" d="M17.9,50.3c-0.1,0.1-0.1,0.3-0.3,0.4c-0.2,0.1-0.4,0-0.5-0.1c-0.1-0.2-0.2-0.3-0.1-0.5s0.2-0.2,0.4-0.3
			C17.7,49.9,17.9,50.1,17.9,50.3L17.9,50.3z"/>
		<path class="st0" d="M19.4,50.6c-0.1,0.2-0.2,0.4-0.4,0.5c-0.2,0.1-0.4-0.1-0.5-0.2c-0.1-0.2-0.2-0.3-0.1-0.5
			c0.1-0.1,0.2-0.2,0.4-0.2C19.1,50.1,19.3,50.4,19.4,50.6L19.4,50.6z"/>
		<path class="st0" d="M65.8,50.8c0,0.2-0.1,0.3-0.2,0.5c-0.1,0.2-0.4,0.2-0.6,0.1c-0.2,0-0.2-0.2-0.3-0.4c-0.2-0.2,0.1-0.3,0.2-0.5
			C65.2,50.3,65.7,50.4,65.8,50.8L65.8,50.8z"/>
		<path class="st0" d="M66.9,50.8c0,0.1,0.1,0.2,0.1,0.4c-0.2,0.1-0.2,0.5-0.6,0.3c-0.1,0.1-0.2-0.2-0.3-0.2c-0.1-0.3,0-0.6,0.3-0.7
			C66.6,50.5,66.8,50.7,66.9,50.8L66.9,50.8z"/>
		<path class="st0" d="M18.5,51.5c0.1,0.3-0.1,0.5-0.2,0.7c-0.3,0.1-0.6,0.1-0.7-0.3c0-0.2,0-0.6,0.3-0.7
			C18.1,51.2,18.4,51.2,18.5,51.5L18.5,51.5z"/>
		<path class="st0" d="M20,51.4c-0.1,0.7-0.2,1.6-0.9,2c-0.4,0.1-0.8,0.5-1.2,0.2v-0.1C18.4,52.7,19.3,52.1,20,51.4L20,51.4z"/>
		<path class="st0" d="M61.8,52c0.1,0.2-0.1,0.3-0.1,0.4c-0.1,0.2-0.4,0.1-0.6,0c-0.2-0.1-0.2-0.3-0.1-0.5c0.1-0.2,0.2-0.2,0.3-0.3
			C61.5,51.6,61.7,51.8,61.8,52L61.8,52z"/>
		<path class="st0" d="M22.5,53.2c0.4,0.6,0.2,1.4,0.4,2c-0.4,0.1-0.6-0.4-0.9-0.7c-0.6-0.8-0.5-1.8-0.7-2.7
			c0.1-0.1,0.1-0.1,0.2-0.1c0.4,0.2,0.7,0.7,1,1.1C22.3,53,22.5,53,22.5,53.2L22.5,53.2z"/>
		<path class="st0" d="M63.1,52.2c0,0.2-0.2,0.3-0.4,0.4c-0.2,0-0.3-0.1-0.5-0.2c-0.1-0.2,0.1-0.3,0.2-0.5
			C62.8,51.8,63,51.9,63.1,52.2L63.1,52.2z"/>
		<path class="st0" d="M66.1,54.5c0,0.1,0,0.2-0.2,0.2h-0.1c-0.7-0.7-1.5-1.4-1.4-2.4h0.2C65.3,52.8,66.1,53.4,66.1,54.5L66.1,54.5z
			"/>
		<path class="st0" d="M64.2,53.6c0,0.2-0.1,0.4-0.2,0.5c-0.3,0.1-0.7,0.1-0.8-0.3c0-0.3,0.3-0.4,0.4-0.5
			C63.9,53.2,64.1,53.4,64.2,53.6L64.2,53.6z"/>
		<path class="st0" d="M62.5,54.2c-0.4,0.9-1.3,1.4-2,2.1c-0.1-0.1-0.1-0.3-0.1-0.4c0.2-1,1-1.9,1.9-2.3
			C62.9,53.7,62.5,54,62.5,54.2L62.5,54.2z"/>
		<path class="st0" d="M64.4,54.9c0,0.2-0.2,0.3-0.4,0.5c-0.2,0-0.4-0.1-0.6-0.3c0-0.3,0.2-0.3,0.3-0.5
			C64.1,54.6,64.3,54.7,64.4,54.9L64.4,54.9z"/>
		<path class="st0" d="M45.6,8.7c0.3,0,0.6,0.3,0.6,0.6s-0.3,0.6-0.6,0.6h-7.5c-0.3,0-0.6-0.3-0.6-0.6c0-0.3,0.3-0.6,0.6-0.6H45.6
			L45.6,8.7z M40.3,9.8c0.7,0,0-0.9-0.4-0.9h-0.6c-0.7,0,0,0.9,0.4,0.9H40.3L40.3,9.8z M43.4,9.8c0.7,0,0-0.9-0.4-0.9h-0.7
			c-0.7,0,0,0.9,0.4,0.9H43.4L43.4,9.8z M45.7,8.9h-0.3c-0.7,0-0.1,0.9,0.3,0.9C46.2,9.8,46.2,8.9,45.7,8.9L45.7,8.9z"/>
		<path class="st0" d="M45,17.3l1.4,0.5l1.4-0.5l-0.6,2.1l1.1-0.2l-0.4,1.3l0.4,1.2l-1-0.3l0.4,2.3l-1.4-0.5l-1.4,0.5l0.6-2.3
			l-1.1,0.3l0.3-1.3l-0.3-1.2l1.1,0.2L45,17.3L45,17.3z M47.1,21.1c0.3,0,0.4-0.4,0.4-0.8c0-0.9-0.7,0-1-0.8c-0.3,0.7-1,0.1-1,0.8
			c0,0.5,0,0.8,0.5,0.8H47.1L47.1,21.1z M45.7,20.4c0,0.3,0.4,0.1,0.8,0.1c0.3,0,0.8,0.2,0.8-0.1c0-0.5-0.4-0.3-0.8-0.3
			C46.1,20,45.7,19.9,45.7,20.4L45.7,20.4z"/>
		<polygon class="st0" points="41.6,20.4 41.6,20.2 41.4,20.1 41.6,19.9 41.5,19.7 41.7,19.7 41.9,19.5 42,19.7 42.2,19.7 
			42.1,19.9 42.3,20.1 42.1,20.2 42.1,20.4 41.9,20.3 		"/>
		<polygon class="st0" points="40.5,21.9 40.5,21.6 40.3,21.5 40.5,21.4 40.4,21.1 40.6,21.2 40.7,20.9 40.9,21.2 41.1,21.1 
			41,21.4 41.2,21.5 41,21.6 41,21.9 40.7,21.7 		"/>
		<polygon class="st0" points="42.4,21.7 42.4,21.4 42.2,21.4 42.4,21.2 42.2,21 42.5,21 42.6,20.7 42.8,21 43,21 42.9,21.2 
			43.1,21.4 42.9,21.4 42.9,21.7 42.6,21.5 		"/>
		<polygon class="st0" points="42.6,22.8 42.6,22.6 42.5,22.6 42.6,22.5 42.5,22.3 42.7,22.4 42.8,22.2 42.8,22.4 43,22.3 
			42.9,22.5 43,22.6 42.9,22.6 42.9,22.8 42.8,22.7 		"/>
		<polygon class="st0" points="40.9,24 40.9,23.5 40.5,23.4 40.8,23.1 40.6,22.7 41,22.8 41.3,22.3 41.5,22.8 41.9,22.7 41.7,23.1 
			42.1,23.4 41.7,23.5 41.7,24 41.3,23.7 		"/>
		<polygon class="st0" points="41.8,0 42.7,2.2 44.9,1.5 43.8,3.6 45.7,4.9 43.4,5.3 43.5,7.7 41.8,6.1 40,7.7 40.2,5.3 37.8,4.9 
			39.8,3.6 38.6,1.5 40.9,2.2 		"/>
		<path class="st0" d="M33.6,49c-0.3,0.1-0.4,0.2-0.3,0.5l0.3,1.3c0.1,0.2,0.1,0.6-0.1,0.9s-0.6,0.5-0.9,0.5c-0.2,0.1-0.7,0.1-1.1,0
			c-0.2-0.1-0.4-0.2-0.5-0.7l-0.3-1.4c-0.1-0.4-0.2-0.3-0.5-0.3v-0.1l1.7-0.4v0.1c-0.3,0.1-0.5,0.1-0.4,0.5l0.3,1.4
			c0.1,0.2,0.2,0.8,0.9,0.6c0.9-0.2,0.7-0.9,0.7-1.1l-0.3-1.3c-0.1-0.3-0.2-0.4-0.6-0.3v-0.1l1.1-0.3L33.6,49L33.6,49z"/>
		<path class="st0" d="M36.1,49.3c-0.2-0.3-0.6-0.7-1.2-0.6c-0.3,0.1-0.5,0.2-0.4,0.5c0.1,0.2,0.2,0.3,0.6,0.4l0.8,0.1
			c0.2,0,0.6,0.2,0.7,0.7c0.1,0.4-0.1,1-1.1,1.2c-0.5,0.1-0.7,0-0.9,0.1c-0.1,0-0.1,0.1-0.1,0.2h-0.1l-0.2-1h0.1
			c0.2,0.4,0.6,0.8,1.2,0.7C36.1,51.5,36,51,36,51c-0.1-0.3-0.3-0.3-0.7-0.4l-0.4-0.1c-0.9-0.2-1-0.5-1.1-0.7
			c-0.1-0.3,0-0.9,0.9-1.1c0.4-0.1,0.7,0,0.8,0s0.1-0.1,0.1-0.2h0.2L36.1,49.3L36.1,49.3L36.1,49.3z"/>
		<path class="st0" d="M39.5,51l-1.8,0.2v-0.1c0.4-0.1,0.5-0.1,0.5-0.4L38,48.4c-0.4,0.1-0.9,0.1-0.9,0.8H37l-0.1-0.9L40,48l0.1,0.9
			H40c-0.2-0.7-0.7-0.7-1.1-0.6l0.2,2.3c0,0.4,0.2,0.4,0.5,0.4H39.5L39.5,51z"/>
		<path class="st0" d="M43.7,51h-1.1l-1-1.4h-0.1v0.8c0,0.3,0.1,0.4,0.4,0.4v0.1h-1.7v-0.1c0.4,0,0.5,0,0.5-0.4v-1.9
			c0-0.4-0.2-0.4-0.4-0.4V48H42c0.4,0,1.5,0.1,1.4,0.8c0,0.5-0.5,0.7-0.8,0.7l1,1.3c0.1,0.1,0.1,0.1,0.2,0.1L43.7,51L43.7,51z
			 M41.5,49.5c0.7,0,0.9-0.1,1-0.6c0-0.4-0.2-0.6-0.6-0.6c-0.3,0-0.3,0-0.3,0.2L41.5,49.5L41.5,49.5z"/>
		<path class="st0" d="M47.1,51.4l-1.7-0.2v-0.1c0.3,0,0.4,0,0.4-0.1s-0.1-0.5-0.2-0.6l-1.2-0.1c-0.2,0.3-0.3,0.5-0.3,0.5
			c0,0.2,0.2,0.2,0.4,0.2v0.1l-1-0.1v-0.1c0.3,0,0.4-0.1,0.6-0.4l1.4-2.2h0.1l0.9,2.4C46.8,51.2,46.9,51.3,47.1,51.4L47.1,51.4
			L47.1,51.4z M45.7,50.2l-0.4-1.1l-0.6,1L45.7,50.2L45.7,50.2z"/>
		<path class="st0" d="M50.1,52l-2.9-0.5v-0.1c0.3,0,0.4,0,0.5-0.2l0.4-2.1c0.1-0.3-0.2-0.3-0.4-0.4v-0.1l1.8,0.3V49
			c-0.4-0.1-0.5-0.1-0.6,0.3l-0.4,2c0,0.2,0.1,0.3,0.4,0.3c0.8,0.1,1.1-0.2,1.4-0.6h0.1L50.1,52L50.1,52z"/>
		<path class="st0" d="M52.1,52.5l-1.8-0.4V52c0.3,0,0.5,0.1,0.5-0.2l0.4-2.1c0.1-0.3-0.2-0.3-0.4-0.4v-0.1l1.8,0.4v0.1
			c-0.2,0-0.5-0.1-0.5,0.2L51.7,52C51.6,52.3,51.8,52.3,52.1,52.5L52.1,52.5L52.1,52.5z"/>
		<path class="st0" d="M55.7,52.9L54,52.7v-0.1c0.3,0,0.4,0,0.4-0.1s-0.1-0.5-0.2-0.6L53,51.8c-0.2,0.3-0.3,0.5-0.3,0.5
			c0,0.2,0.2,0.2,0.4,0.2v0.1l-1-0.1v-0.1c0.3,0,0.4-0.1,0.5-0.5l1.4-2.2h0.1l0.9,2.4c0.2,0.5,0.2,0.6,0.5,0.7L55.7,52.9L55.7,52.9z
			 M54.2,51.8l-0.4-1.1l-0.6,1L54.2,51.8L54.2,51.8z"/>
		<path class="st0" d="M42.5,18c0-1-0.6-0.1-0.9-0.9c-0.2,0.7-0.9,0.1-0.9,0.9c0,0.3,0.1,0.5,0.2,0.6v0.3C40.9,19,41,19,41,19h1.1
			c0.1,0,0.1-0.1,0.1-0.1v-0.3C42.4,18.5,42.5,18.3,42.5,18L42.5,18z M41.6,18.2c-0.3,0-0.7,0.2-0.7-0.1c0-0.5,0.3-0.4,0.7-0.4
			c0.3,0,0.8-0.1,0.8,0.4C42.3,18.4,41.9,18.2,41.6,18.2L41.6,18.2z"/>
		<path class="st0" d="M51.5,30.8c0.3,0,0.5-0.2,0.5-0.4c0-0.2-0.2-0.4-0.5-0.4S51,30.2,51,30.4S51.3,30.8,51.5,30.8L51.5,30.8z"/>
		<path class="st0" d="M49.3,15.4l-0.2,0.4c0,0.1,0.1,0.2,0.2,0.2s0.2-0.1,0.2-0.2L49.3,15.4L49.3,15.4z"/>
		<path class="st0" d="M34,15.4l-0.2,0.4c0,0.1,0.1,0.2,0.2,0.2s0.2-0.1,0.2-0.2L34,15.4L34,15.4z"/>
		<path class="st0" d="M37.8,15.4l-0.2,0.4c0,0.1,0.1,0.2,0.2,0.2s0.2-0.1,0.2-0.2C38.1,15.8,37.8,15.4,37.8,15.4L37.8,15.4z"/>
		<path class="st0" d="M41.6,15.4l-0.2,0.4c0,0.1,0.1,0.2,0.2,0.2s0.2-0.1,0.2-0.2C41.9,15.8,41.6,15.4,41.6,15.4L41.6,15.4z"/>
		<path class="st0" d="M45.5,15.4l-0.2,0.4c0,0.1,0.1,0.2,0.2,0.2c0.1,0,0.2-0.1,0.2-0.2L45.5,15.4L45.5,15.4z"/>
		<path class="st0" d="M34,20.6l0.2,0.4c0,0.1-0.1,0.2-0.2,0.2s-0.2-0.1-0.2-0.2C33.8,21.1,34,20.6,34,20.6L34,20.6z"/>
		<path class="st0" d="M34,25.7l0.2,0.4c0,0.1-0.1,0.2-0.2,0.2s-0.2-0.1-0.2-0.2C33.8,26.2,34,25.7,34,25.7L34,25.7z"/>
		<path class="st0" d="M34.6,29.7l0.2,0.4c0,0.1-0.1,0.2-0.2,0.2s-0.2-0.1-0.2-0.2C34.4,30.2,34.6,29.7,34.6,29.7L34.6,29.7z"/>
		<path class="st0" d="M37.8,31.9l0.2,0.4c0,0.1-0.1,0.2-0.2,0.2s-0.2-0.1-0.2-0.2L37.8,31.9L37.8,31.9z"/>
		<path class="st0" d="M49.5,20.6L49.3,21c0,0.1,0.1,0.2,0.2,0.2c0.1,0,0.2-0.1,0.2-0.2C49.7,21.1,49.5,20.6,49.5,20.6L49.5,20.6z"
			/>
		<path class="st0" d="M49.5,25.7l-0.2,0.4c0,0.1,0.1,0.2,0.2,0.2c0.1,0,0.2-0.1,0.2-0.2C49.7,26.2,49.5,25.7,49.5,25.7L49.5,25.7z"
			/>
		<path class="st0" d="M48.9,29.7l-0.2,0.4c0,0.1,0.1,0.2,0.2,0.2c0.1,0,0.2-0.1,0.2-0.2C49.1,30.2,48.9,29.7,48.9,29.7L48.9,29.7z"
			/>
		<path class="st0" d="M45.7,31.9l-0.2,0.4c0,0.1,0.1,0.2,0.2,0.2c0.1,0,0.2-0.1,0.2-0.2C45.9,32.3,45.7,31.9,45.7,31.9L45.7,31.9z"
			/>
		<path class="st0" d="M41.8,34.2l-0.2,0.4c0,0.1,0.1,0.2,0.2,0.2c0.1,0,0.2-0.1,0.2-0.2L41.8,34.2L41.8,34.2z"/>
		<path class="st0" d="M48,26.6c0.1,0.1,0.2,0.1,0.3,0l0.1-0.4c0,0-0.2-0.2-0.3-0.2c-0.4,0.1-0.8,0.1-1.1,0.5c0,0.3,0.2,0.5,0.4,0.6
			c0.1-0.1,0.2,0.1,0.3,0.2c0,0.1-0.1,0.2-0.2,0.2c-0.3-0.3-0.8,0.1-1-0.3c0.1-0.4,0.3-0.8,0-1.1c0-0.1,0.1-0.1,0.1-0.2
			c-0.1-0.3-0.5-0.1-0.7-0.1c-0.4-0.1-0.7,0.1-0.9,0.4c0,0.1,0.1,0.2,0.2,0.4c0.1,0,0.1,0,0.2,0.1l-0.2,0.1c0.1,0.1,0.1,0.2,0.1,0.3
			c-0.2,0.1-0.3-0.2-0.4-0.3c0-0.2,0-0.5-0.2-0.6c-0.1,0-0.2,0.1-0.2,0.1c-0.1,0.1-0.1,0.2-0.1,0.4s0.1,0.4,0.1,0.4s0.7,0.5,0.9,0.9
			c-0.2,0.4-0.2,1-0.7,1.3c-0.1,0.1-0.1,0.2-0.1,0.4l0.1,0.1c0.3-0.2,0.9-0.2,0.9-0.7c0.1-0.2,0.2-0.5,0.5-0.6
			c0.2-0.1,0.5,0.1,0.5,0.3c-0.1,0.4-0.3,0.6-0.6,0.7c0,0.1,0,0.1,0,0.2c0.1,0.2,0.4,0.1,0.5,0.1c0.4-0.3,0.6-0.7,0.9-0.9
			c0.1,0.2-0.5,0.3-0.1,0.6c0.2-0.1,0.5,0,0.7-0.3c-0.2-0.4,0.6-0.6,0.1-1c0-0.4,0.4-0.5,0.4-0.9c-0.1-0.4-0.6-0.4-0.7-0.7
			C47.6,26.5,47.8,26.5,48,26.6L48,26.6z"/>
		<path class="st0" d="M30.4,31c0.3,0,0.5-0.2,0.5-0.4c0-0.2-0.2-0.4-0.5-0.4s-0.5,0.2-0.5,0.4C30,30.8,30.2,31,30.4,31L30.4,31z"/>
		<path class="st0" d="M5.7,45.4c0.3,0,0.5-0.2,0.5-0.4c0-0.2-0.2-0.4-0.5-0.4S5.2,44.8,5.2,45S5.4,45.4,5.7,45.4L5.7,45.4z"/>
		<path class="st0" d="M21.4,48.9L21.4,48.9L21.4,48.9L21.4,48.9L21.4,48.9L21.4,48.9L21.4,48.9L21.4,48.9L21.4,48.9L21.4,48.9
			L21.4,48.9C21.3,48.8,21.3,48.8,21.4,48.9L21.4,48.9L21.4,48.9L21.4,48.9L21.4,48.9L21.4,48.9L21.4,48.9L21.4,48.9L21.4,48.9z
			 M21.4,48.9L21.4,48.9L21.4,48.9L21.4,48.9L21.4,48.9L21.4,48.9z"/>
		<path class="st0" d="M21.5,48.9L21.5,48.9L21.5,48.9L21.5,48.9L21.5,48.9L21.5,48.9L21.5,48.9C21.5,48.9,21.4,48.9,21.5,48.9
			L21.5,48.9L21.5,48.9L21.5,48.9L21.5,48.9C21.4,48.9,21.5,48.9,21.5,48.9L21.5,48.9L21.5,48.9L21.5,48.9
			C21.4,48.9,21.4,48.9,21.5,48.9C21.4,48.9,21.4,48.9,21.5,48.9L21.5,48.9L21.5,48.9L21.5,48.9L21.5,48.9L21.5,48.9L21.5,48.9z"/>
		<path class="st0" d="M21.7,48.9L21.7,48.9L21.7,48.9L21.7,48.9L21.7,48.9L21.7,48.9L21.7,48.9L21.7,48.9L21.7,48.9L21.7,48.9
			L21.7,48.9L21.7,48.9L21.7,48.9C21.6,48.9,21.6,48.9,21.7,48.9L21.7,48.9L21.7,48.9L21.7,48.9L21.7,48.9L21.7,48.9
			C21.6,48.9,21.6,48.9,21.7,48.9L21.7,48.9L21.7,48.9L21.7,48.9C21.6,48.9,21.6,48.9,21.7,48.9L21.7,48.9L21.7,48.9L21.7,48.9
			L21.7,48.9L21.7,48.9L21.7,48.9L21.7,48.9L21.7,48.9L21.7,48.9L21.7,48.9z"/>
		<path class="st0" d="M21.7,48.9L21.7,48.9L21.7,48.9L21.7,48.9L21.7,48.9C21.7,48.9,21.7,48.8,21.7,48.9
			C21.7,48.8,21.7,48.9,21.7,48.9L21.7,48.9L21.7,48.9L21.7,48.9z M21.7,48.9L21.7,48.9L21.7,48.9L21.7,48.9L21.7,48.9L21.7,48.9
			L21.7,48.9z"/>
		<path class="st0" d="M21.8,48.9L21.8,48.9L21.8,48.9L21.8,48.9C21.8,48.9,21.7,48.9,21.8,48.9C21.7,48.9,21.7,48.9,21.8,48.9
			L21.8,48.9L21.8,48.9L21.8,48.9L21.8,48.9L21.8,48.9L21.8,48.9L21.8,48.9L21.8,48.9L21.8,48.9L21.8,48.9z"/>
		<path class="st0" d="M50.6,14.8L50.6,14.8H33l0,0l0,0v13.5c0,1.4,0.6,2.6,1.4,2.9l6.8,4.3c0.1,0.2,0.4,0.3,0.6,0.3
			c0.2,0,0.4-0.1,0.5-0.2l6.9-4.4c0.8-0.4,1.4-1.6,1.4-2.9V14.8L50.6,14.8L50.6,14.8z M50.1,28.4c-0.1,1-0.4,1.9-1.1,2.3l-6.6,4.2
			l0,0c-0.1,0.1-0.3,0.2-0.5,0.2s-0.4-0.1-0.5-0.2l-6.6-4.2c-0.7-0.5-1-1.3-1.1-2.3V15.3h16.6L50.1,28.4L50.1,28.4z"/>
		<path class="st0" d="M44.1,34.4l0.2-0.1C44.2,34.3,44.2,34.4,44.1,34.4L44.1,34.4z"/>
		<path class="st0" d="M30.8,52.8L29.1,53v-0.1c0.3-0.1,0.4-0.1,0.4-0.2s-0.2-0.4-0.3-0.5L28,52.3c-0.1,0.3-0.2,0.5-0.2,0.6
			c0,0.2,0.3,0.1,0.4,0.1v0.1l-1,0.1v-0.1c0.3-0.1,0.3-0.2,0.4-0.6l0.9-2.5h0.1l1.4,2.1c0.3,0.4,0.4,0.6,0.6,0.5L30.8,52.8
			L30.8,52.8z M29.2,52l-0.6-1l-0.4,1.1L29.2,52L29.2,52z"/>
		<path class="st0" d="M60,46.5c-0.3-0.8-0.9-1.3-1.7-1.6c-0.8-0.2-1.7-0.1-2.2,0.6c-0.9,0.7-0.3,2-0.2,3c0,0.2,0,0.4-0.2,0.5
			c-3.7-0.3-7.1-1.2-10.7-1.6c-0.8-0.1-1.7-0.1-2.5-0.3l-1-0.1c-3.2,0.1-6.3,0.3-9.3,1c-0.6,0.2-1.3,0.2-2,0.5
			c-0.5-0.1-0.8,0.2-1.3,0.1l-0.8,0.2c-0.1,0-0.2,0-0.3,0c-0.4-1,0.8-1.7,0.4-2.7c-0.3-0.6-1-1.1-1.7-1c-0.9-0.1-1.6,0.4-2,1
			c-0.6,1.3,0.2,2.6,0.4,3.8c-0.1,0.4,0.4,0.9,0,1.2c-0.8-0.6-1.9-0.9-2.9-0.6c-0.3,0.2-0.9-0.1-1,0.3c1.1,0.6,2.5,0.5,3.7,0.5
			c0.2-0.1,0.3-0.1,0.4,0c0.1,0.7-0.1,1.6,0.3,2.1c0.5,0.6,1.2,0.8,1.9,0.8c2.3-0.1,4.4-0.8,6.5-1.3c0.3,0,0.6-0.2,0.9-0.2
			c1.1-0.3,2.4-0.5,3.6-0.5c-0.5,0.7-0.8,1.5-1.1,2.3c-0.3,0.7,0.5,0.8,0.8,1.2c-0.8,0.2-1.3,0.8-2.1,1.1c-1.6-0.1-3,0.6-4.5,0.7
			c0,0.3,0.5,0.2,0.6,0.6c-0.1,0.2-0.3,0.3-0.5,0.4c0,0.2,0,0.2,0.2,0.2c0.2-0.2,0.5-0.1,0.6-0.2c0.5,0,0.9-0.2,1.4-0.2
			c0.4-0.2,0.9-0.2,1.3-0.5c0.5-0.2,0.9-0.5,1.4-0.7c0.8,0,1.4-0.3,2.1-0.3V57c-0.6,0.9-1.2,1.9-1.8,2.8c-0.1,0.2,0,0.4,0.2,0.4
			c0.4,0.1,0.7,0,1-0.2c0.5-0.9,1-1.8,1.4-2.7c0.2-0.9,0.8-1.3,1.4-1.9c0.1-0.1,0.2-0.2,0.4-0.1c-0.5,0.6-0.8,1.2-1.2,1.8
			c-0.2,0.7-0.3,1.6,0.4,2.2c0.3,0.3,0.8,0.2,1.2,0.2c1-0.5,2.2,0.3,3-0.7c0.5-0.1,0.5,0.5,0.8,0.7c0.4,0.1,0.9,0.6,1.3,0.2
			c0-0.3-0.3-0.5-0.5-0.8c-0.3-0.5-0.7-1-1-1.5c-0.1-0.4-0.4-0.6-0.4-0.9c0.5,0.2,0.9,0.5,1.4,0.5c0.4,0.2,1,0.2,1.4,0.4
			c0.3,0.4,0.8,0.7,1.3,1c0.6,0.3,1.3,0.4,2,0.6c0.2,0,0.6,0.2,0.8,0c-0.1-0.1-0.2-0.2-0.4-0.3c-0.1-0.3,0.5-0.2,0.6-0.4
			c-0.1-0.1-0.2-0.2-0.3-0.2c-0.4-0.2-1.3-0.3-1.5-0.4c-0.3-0.1-0.6-0.2-0.9-0.3c-1.5,0-2.4-1.4-3.6-1.9c0.3-0.3,0.7-0.5,0.9-0.8
			c0.2-0.4,0.3-0.9,0.1-1.3c-0.2-0.8-1.2-0.7-1.8-1.1l0.1-0.1c1-0.1,1.8,0.2,2.7,0.4c2.4,0.3,4.7,1.2,7.2,1.3c1.4,0,3.1,0.1,3.8-1.3
			c0.1-0.8,0.3-1.6,0.4-2.4C59.3,49.1,60.1,47.9,60,46.5L60,46.5z M32.7,58.1l-0.4-0.3c0.2-0.2,0.6-0.1,0.8-0.3
			c0.7-0.2,1.4-0.5,2.1-0.3C34.6,57.8,33.6,57.9,32.7,58.1L32.7,58.1z M48.5,57.7c0.6,0.3,1.8,0.5,2.7,0.6c-0.1,0.3-0.7,0-0.6,0.5
			c-0.8-0.3-1.7-0.5-2.3-1.1C48.3,57.7,48.4,57.7,48.5,57.7L48.5,57.7z M24.8,46.9c0.1-0.5,0.2-0.9,0.6-1.3c0.6-0.3,1.4-0.2,2,0.1
			c0.2,0.1,0.3,0.2,0.4,0.5c0.1,0.4-0.1,0.9-0.4,1.2h-0.2c0-0.4,0-0.8,0.2-1.2c0-0.3-0.3-0.3-0.5-0.5c-0.4-0.1-0.8,0.1-1.1,0.3
			c-0.2,0.3-0.5,0.7-0.3,1.1c0.2,0.3,0,0.7,0.1,1l-0.1,0.1C25.1,47.8,24.7,47.5,24.8,46.9L24.8,46.9z M26,47.6
			c0.4,0.3,0.9,0.2,1.4,0.2c0.1,0.3,0.1,0.6-0.1,0.9c-0.4-0.1-1-0.1-1.2-0.5C26,48.1,25.9,47.8,26,47.6L26,47.6z M25.9,46.7
			c0.1-0.2,0-0.5,0.3-0.6c0.2-0.1,0.5-0.1,0.5,0.2c0,0.3-0.1,0.6-0.1,0.9C26.2,47.3,26,47,25.9,46.7L25.9,46.7z M37.7,54.9
			c-0.1-0.9,0.2-1.7,0.8-2.3c0.4-0.1,0.8-0.2,1.1,0.1c-0.7,0.2-1.5,0.3-1.6,1.2c0,0.3-0.1,0.5,0.1,0.8c0.3,0.5,0.9,0.3,1.3,0.7
			c0,0.1-0.1,0.3-0.2,0.3C38.7,55.4,38.1,55.2,37.7,54.9L37.7,54.9z M36.8,56.7c0.6-0.3,1.2-0.8,1.9-0.6
			C38.3,56.5,37.5,56.6,36.8,56.7L36.8,56.7z M39.2,56.9c-0.4,0.8-0.8,1.6-1.2,2.4c-0.1,0.1-0.3,0.2-0.4,0.2c0-0.4,0.4-0.6,0.5-0.9
			c0.5-0.7,0.7-1.4,1.3-2.1C39.5,56.6,39.2,56.7,39.2,56.9L39.2,56.9z M39.9,55.5L39.9,55.5L39.9,55.5L39.9,55.5L39.9,55.5
			L39.9,55.5C39.9,55.4,39.8,55.4,39.9,55.5L39.9,55.5L39.9,55.5z M39.6,54.8c-0.4-0.1-0.8-0.2-1.2-0.3c-0.2-0.3,0-0.5,0-0.8
			c0.4-0.6,1.4-0.8,1.8-0.3C40.2,53.9,40,54.4,39.6,54.8L39.6,54.8z M40.2,54.8c0.1-0.3,0.2-0.8,0.4-1.1
			C40.6,54,40.4,54.5,40.2,54.8L40.2,54.8z M40.5,52.7c-0.3-0.1-0.5-0.5-0.9-0.5c0.3-0.1,0.6-0.1,1,0C40.7,52.4,40.5,52.6,40.5,52.7
			L40.5,52.7z M40.8,53.5L40.8,53.5v-0.3l0,0V53.5L40.8,53.5z M40.8,54.6c0-0.1,0.1-0.2,0.1-0.4c0.1-0.1,0.2,0.1,0.3,0.2
			C41.1,54.6,40.9,54.7,40.8,54.6L40.8,54.6z M41.2,53.1c0.1-0.4,0.1-0.7,0.4-0.9c0.2,0,0.5,0,0.7,0.1c0.1,0.5,0.7,1.2,0,1.6
			c-0.2,0.1-0.6,0.3-0.8,0.1C41.1,53.7,41,53.4,41.2,53.1L41.2,53.1z M43,52.3c-0.1-0.2,0.2-0.1,0.3-0.2l0.8,0.1
			C43.7,52.2,43.2,53.1,43,52.3L43,52.3z M44.3,52.7c-0.3,0.1-0.5,0.5-0.8,0.5C43.6,52.9,44,52.7,44.3,52.7L44.3,52.7z M43.2,54.3
			L43.2,54.3L43.2,54.3L43.2,54.3L43.2,54.3L43.2,54.3z M43.3,55.8c0,0.1,0,0.1-0.1,0.2l-0.6-0.5C42.9,55.5,43.1,55.6,43.3,55.8
			L43.3,55.8z M42.6,55c0.1-0.1,0.2-0.1,0.2,0H42.6L42.6,55z M42.2,54.6c0.1-0.2,0.2-0.4,0.4-0.4c0,0,0,0.1,0.1,0.1
			C42.5,54.5,42.4,54.6,42.2,54.6L42.2,54.6z M41.6,54.6L41.6,54.6l0.1-0.2C41.8,54.5,41.7,54.5,41.6,54.6L41.6,54.6z M41.7,55.5
			c0.3-0.4,0.6,0.2,0.8,0.5c0.4,0.6,1.4,1.1,1,1.8c-0.5,0.4-1.2,0-1.8,0.4c-0.3,0-0.8,0.1-0.9-0.2C41.1,57.2,41.3,56.3,41.7,55.5
			L41.7,55.5z M41,56l0.1-0.2c-0.2,0.6-0.5,1.2-0.8,1.8C40.2,57.1,40.8,56.6,41,56L41,56z M42.1,59.1c-0.5,0-1.2,0.3-1.7-0.1
			c0-0.2-0.2-0.3-0.2-0.5c0.4-0.2,0.8,0.3,1.1,0c0.6,0,1.2-0.1,1.8,0.1c0.3,0.1,0.7-0.5,0.8,0.1C43.7,59.4,42.7,58.8,42.1,59.1
			L42.1,59.1z M43.6,55.4L43.6,55.4L43.6,55.4L43.6,55.4L43.6,55.4L43.6,55.4z M43.7,57c0,0.3,0.3,0.4,0.1,0.6
			C43.8,57.5,43.7,57.3,43.7,57L43.7,57z M44.5,58.5L44.5,58.5c-0.2,0-0.2-0.3-0.2-0.4C44.4,58.2,44.5,58.4,44.5,58.5L44.5,58.5z
			 M45.7,59.1c0,0.1-0.2,0.1-0.2,0c-0.8-1-1.1-2-1.6-3.1H44C44.6,57.1,45.1,58.2,45.7,59.1L45.7,59.1z M46.7,56.8
			C46.6,56.8,46.6,56.9,46.7,56.8c-0.8,0.1-1.3-0.3-1.9-0.7V56C45.5,56,46,56.5,46.7,56.8L46.7,56.8z M46,53.4
			c0.3,0.1,0.3,0.4,0.4,0.7c0,0.6-0.3,1-0.9,1.2c-0.3,0.2-0.7,0.2-1,0.1c0.6,0,1.3-0.2,1.5-0.9V53.4L46,53.4z M45.4,53.3
			c0.1,0.4,0.4,0.7,0.2,1.1c-0.2,0.5-0.8,0.5-1.2,0.6c-0.2,0-0.4-0.1-0.6-0.2c0-0.1,0-0.2-0.1-0.2c0.1-0.3-0.6-0.7-0.1-0.9
			C44.1,53.3,45,52.4,45.4,53.3L45.4,53.3z M58.3,51.5c-0.2,0.2,0,0.7-0.3,0.9c0,0.5-0.4,0.7-0.7,0.9c-3,0.7-6-0.4-8.9-0.9
			c-4.1-0.9-8.8-1.1-13-0.2c-1.9,0.4-3.8,0.8-5.7,1.3c-1.2,0.2-2.4,0.3-3.5,0c-0.9-0.4-0.5-1.6-0.8-2.4c0.1-0.6-0.2-1.1-0.2-1.8
			c-0.1-0.2-0.1-0.5-0.1-0.7c0.4,0.1,0.8,0.3,1.2,0.4c2.1,0.4,4-0.3,6-0.6c1.9-0.4,3.8-0.7,5.8-0.9c2.3,0,4.6-0.2,6.8,0.2
			c0.7,0,1.3,0.2,2,0.2c1.4,0.2,2.7,0.6,4.2,0.7c0.2,0.1,0.5,0.1,0.8,0.1c2.3,0.4,4.8,1,7,0C58.8,49.7,58.4,50.6,58.3,51.5
			L58.3,51.5z M57.6,48.4c0,0.4-0.4,0.3-0.6,0.5h-0.6c-0.1-0.2-0.1-0.5-0.1-0.7C56.7,48.2,57.2,48.2,57.6,48.4L57.6,48.4z
			 M57.3,47.7c0.3-0.3-0.1-1.9,0.7-0.8c0,0.2,0,0.5-0.2,0.7C57.7,47.6,57.5,47.8,57.3,47.7L57.3,47.7z M59.3,47.5
			c-0.2,0.5-0.6,0.8-1.1,0.9c0-0.6,0.6-1,0.4-1.7c-0.3-0.5-1-0.6-1.6-0.5c-0.2,0.2-0.1,0.4-0.2,0.6l-0.1,0.8c-0.5,0-0.5-0.5-0.7-0.8
			c0-0.5,0.3-1.1,0.8-1.3c0.4-0.2,1.1-0.2,1.5,0.1c0.3,0.1,0.7,0.2,0.8,0.5C59.5,46.4,59.4,47,59.3,47.5L59.3,47.5z"/>
	</g>
	<text transform="matrix(1 0 0 1 92.2352 39.1999)" class="st0 st1 st2">Australian Government</text>
</g>
</svg>
