<?xml version="1.0" encoding="utf-8"?>
<!-- Generator: Adobe Illustrator 19.2.1, SVG Export Plug-In . SVG Version: 6.00 Build 0)  -->
<!DOCTYPE svg PUBLIC "-//W3C//DTD SVG 1.1//EN" "http://www.w3.org/Graphics/SVG/1.1/DTD/svg11.dtd">
<svg version="1.1" id="Layer_1" xmlns="http://www.w3.org/2000/svg" xmlns:xlink="http://www.w3.org/1999/xlink" x="0px" y="0px"
	 viewBox="0 0 193.6 224.8" style="enable-background:new 0 0 193.6 224.8;" xml:space="preserve">
<style type="text/css">
	.st0{fill:#577292;}
	.st1{fill:#F2F2F2;}
	.st2{fill:#56728F;}
</style>
<path class="st0" d="M193.3,190.4h-50.8c-32.7,0-65.5-0.3-98.2,0.1c-22.2,0.3-44.9-19.6-44.3-45C1.1,99.9,0.3,54.3,0.3,8.7V0.5
	c2.7-0.1,5-0.3,7.2-0.3c47.9,0,95.9,0.5,143.8-0.2c19.6-0.3,42.7,22.2,42.3,42.1c-1,47-0.3,94-0.3,141V190.4z"/>
<path class="st1" d="M66.9,71c0,10.5-2.2,16.8-6.5,20.9c-4.5,4-10.9,5.5-16.7,5.5c-5.5,0-11.5-1.3-15.1-3.8l2.1-6.4
	c3,2,7.7,3.7,13.4,3.7c8.5,0,14.7-4.4,14.7-16v-5h-0.2c-2.4,4.2-7.4,7.6-14.5,7.6c-11.3,0-19.4-9.6-19.4-22.2
	c0-15.4,10.1-24.1,20.6-24.1c7.9,0,12.1,4,14.2,7.8h0.2l0.3-6.9h7.3c-0.3,3.2-0.4,7-0.4,12.4L66.9,71L66.9,71z M58.6,50.1
	c0-1.4-0.1-2.6-0.5-3.7c-1.5-4.9-5.5-8.8-11.6-8.8c-7.9,0-13.6,6.7-13.6,17.2c0,8.9,4.6,16.4,13.5,16.4c5.2,0,9.8-3.2,11.5-8.5
	c0.5-1.4,0.7-3,0.7-4.4L58.6,50.1L58.6,50.1z M121.8,54.6c0,16.8-11.8,24.2-22.7,24.2c-12.2,0-21.8-9-21.8-23.4
	c0-15.1,10.1-24.1,22.6-24.1C112.9,31.2,121.8,40.7,121.8,54.6z M85.7,55c0,10,5.6,17.5,13.7,17.5c7.9,0,13.8-7.4,13.8-17.7
	c0-7.7-3.9-17.4-13.6-17.4S85.7,46.5,85.7,55z M134.7,32.2l8.9,25.5c1.5,4.2,2.7,8,3.7,11.8h0.3c1-3.8,2.4-7.5,3.9-11.8l8.8-25.5
	h8.7l-17.9,45.5h-7.9l-17.3-45.5C125.9,32.2,134.7,32.2,134.7,32.2z M67.2,97.2v55c0,4,0.2,8.7,0.4,11.8h-7.3l-0.4-7.9h-0.3
	c-2.4,5.1-7.9,8.9-15.3,8.9c-11,0-19.6-9.3-19.6-23.1c-0.1-15.2,9.4-24.4,20.4-24.4c7.1,0,11.7,3.3,13.7,6.9H59V97.2H67.2L67.2,97.2
	z M59,137c0-1-0.1-2.4-0.4-3.5c-1.2-5.2-5.7-9.5-12-9.5C38,124,33,131.5,33,141.5c0,9.2,4.6,16.8,13.5,16.8c5.6,0,10.6-3.8,12.1-9.9
	c0.3-1.1,0.4-2.3,0.4-3.6C59,144.8,59,137,59,137z M85.6,142.7c0.2,11.2,7.2,15.8,15.6,15.8c5.9,0,9.6-1,12.6-2.4l1.5,5.9
	c-2.9,1.3-8,2.9-15.2,2.9c-14,0-22.4-9.3-22.4-23.1c0-13.7,8.1-24.5,21.4-24.5c15,0,18.8,13,18.8,21.4c0,1.7-0.1,2.9-0.3,3.9
	L85.6,142.7L85.6,142.7z M109.9,136.8c0.1-5.2-2.2-13.4-11.5-13.4c-8.5,0-12,7.6-12.7,13.4H109.9z M131.7,118.5l6.5,9.8
	c1.8,2.5,3.2,4.8,4.7,7.3h0.2c1.5-2.6,3-5,4.6-7.4l6.3-9.7h9l-15.5,22l15.9,23.5h-9.3l-6.8-10.3c-1.8-2.6-3.3-5.2-4.9-7.9h-0.2
	c-1.5,2.7-3,5.2-4.8,7.9l-6.6,10.3h-9.1l16.2-23.2l-15.4-22.3L131.7,118.5L131.7,118.5z"/>
<path class="st2" d="M34.7,213.5c1,0.6,2.8,1.3,4.5,1.3c2.4,0,3.6-1.2,3.6-2.8s-1-2.5-3.4-3.4c-3.4-1.2-5-3.1-5-5.3
	c0-3,2.5-5.5,6.5-5.5c1.9,0,3.6,0.5,4.6,1.2l-0.8,2.5c-0.7-0.5-2.1-1.1-3.8-1.1c-2,0-3.1,1.2-3.1,2.6c0,1.5,1.1,2.2,3.5,3.2
	c3.2,1.2,4.9,2.8,4.9,5.6c0,3.3-2.6,5.6-7,5.6c-2,0-3.9-0.5-5.3-1.3L34.7,213.5z M66.2,211.8c0,2,0,3.7,0.2,5.1h-3l-0.2-3.1h-0.1
	c-0.9,1.5-2.9,3.5-6.2,3.5c-2.9,0-6.5-1.7-6.5-8.2v-10.9h3.4v10.3c0,3.6,1.1,6,4.2,6c2.3,0,3.9-1.6,4.5-3.1c0.2-0.5,0.3-1.1,0.3-1.7
	v-11.4h3.4L66.2,211.8L66.2,211.8z M71.8,204.4c0-2.4-0.1-4.3-0.2-6.1h3l0.2,3.2h0.1c1.4-2.3,3.6-3.6,6.7-3.6c4.6,0,8,3.8,8,9.5
	c0,6.7-4.1,10.1-8.5,10.1c-2.5,0-4.6-1.1-5.8-2.9h-0.1v10.2h-3.4L71.8,204.4L71.8,204.4z M75.2,209.4c0,0.5,0,1,0.2,1.4
	c0.6,2.4,2.7,4,5.1,4c3.6,0,5.7-2.9,5.7-7.2c0-3.7-2-6.9-5.6-6.9c-2.3,0-4.5,1.6-5.1,4.2c-0.1,0.4-0.2,0.9-0.2,1.4v3.1H75.2z
	 M93.8,204.4c0-2.4-0.1-4.3-0.2-6.1h3l0.2,3.2h0.1c1.4-2.3,3.6-3.6,6.7-3.6c4.6,0,8,3.8,8,9.5c0,6.7-4.1,10.1-8.5,10.1
	c-2.5,0-4.6-1.1-5.8-2.9h-0.1v10.2h-3.4L93.8,204.4L93.8,204.4z M97.2,209.4c0,0.5,0,1,0.2,1.4c0.6,2.4,2.7,4,5.1,4
	c3.6,0,5.7-2.9,5.7-7.2c0-3.7-2-6.9-5.6-6.9c-2.3,0-4.5,1.6-5.1,4.2c-0.1,0.4-0.2,0.9-0.2,1.4v3.1H97.2z M132.8,207.5
	c0,6.9-4.8,9.9-9.3,9.9c-5,0-9-3.7-9-9.6c0-6.2,4.1-9.9,9.3-9.9C129.1,197.9,132.8,201.8,132.8,207.5z M118,207.7
	c0,4.1,2.3,7.2,5.6,7.2c3.2,0,5.7-3.1,5.7-7.3c0-3.2-1.6-7.2-5.6-7.2S118,204.1,118,207.7z M137.1,204.1c0-2.2,0-4.1-0.2-5.8h3
	l0.2,3.7h0.1c0.9-2.5,2.9-4.1,5.2-4.1c0.3,0,0.6,0,0.9,0.1v3.2c-0.3-0.1-0.7-0.1-1.2-0.1c-2.4,0-4.1,1.8-4.6,4.3
	c-0.1,0.5-0.1,1-0.1,1.6v10H137v-12.9H137.1z M154.8,193.8v4.5h4.9v2.6h-4.9V211c0,2.3,0.7,3.6,2.6,3.6c0.9,0,1.5-0.1,2-0.2l0.2,2.6
	c-0.7,0.2-1.7,0.5-3,0.5c-1.6,0-2.9-0.5-3.7-1.4c-0.9-1-1.3-2.7-1.3-4.9V201h-2.9v-2.6h2.9v-3.5L154.8,193.8L154.8,193.8z"/>
</svg>
